<?xml version="1.0" encoding="UTF-8" standalone="no"?>
<!-- Created with Inkscape (http://www.inkscape.org/) -->

<svg
   id="svg57617"
   version="1.1"
   viewBox="0 0 210 297"
   height="297mm"
   width="210mm"
   sodipodi:docname="grouped_clone_template.svg"
   inkscape:version="1.2.1 (9c6d41e410, 2022-07-14, custom)"
   xmlns:inkscape="http://www.inkscape.org/namespaces/inkscape"
   xmlns:sodipodi="http://sodipodi.sourceforge.net/DTD/sodipodi-0.dtd"
   xmlns:xlink="http://www.w3.org/1999/xlink"
   xmlns="http://www.w3.org/2000/svg"
   xmlns:svg="http://www.w3.org/2000/svg">
  <sodipodi:namedview
     id="namedview57619"
     pagecolor="#ffffff"
     bordercolor="#999999"
     borderopacity="1"
     inkscape:showpageshadow="0"
     inkscape:pageopacity="0"
     inkscape:pagecheckerboard="0"
     inkscape:deskcolor="#d1d1d1"
     inkscape:document-units="mm"
     showgrid="false"
     inkscape:zoom="0.89333698"
     inkscape:cx="230.03637"
     inkscape:cy="203.73051"
     inkscape:window-width="1920"
     inkscape:window-height="1011"
     inkscape:window-x="0"
     inkscape:window-y="32"
     inkscape:window-maximized="1"
     inkscape:current-layer="g26104" />
  <defs
     id="defs57614">
    <linearGradient
       inkscape:collect="always"
       id="linearGradient26090">
      <stop
         style="stop-color:#d0ebec;stop-opacity:1;"
         offset="0"
         id="stop26086" />
      <stop
         style="stop-color:#8abbbd;stop-opacity:1;"
         offset="1"
         id="stop26088" />
    </linearGradient>
    <meshgradient
       inkscape:collect="always"
       id="meshgradient24174"
       gradientUnits="userSpaceOnUse"
       x="13.943925"
       y="21.098289"
       gradientTransform="translate(-1.1210683)">
      <meshrow
         id="meshrow24176">
        <meshpatch
           id="meshpatch24178">
          <stop
             path="c 23.5394,0  47.0788,0  70.6182,0"
             style="stop-color:#cde9fc;stop-opacity:1"
             id="stop24180" />
          <stop
             path="c 0,25.9619  0,51.9238  0,77.8856"
             style="stop-color:#8974fa;stop-opacity:1"
             id="stop24182" />
          <stop
             path="c -23.5394,0  -47.0788,0  -70.6182,0"
             style="stop-color:#d0ebec;stop-opacity:1"
             id="stop24184" />
          <stop
             path="c 0,-25.9619  0,-51.9238  0,-77.8856"
             style="stop-color:#7bdef4;stop-opacity:1"
             id="stop24186" />
        </meshpatch>
      </meshrow>
    </meshgradient>
    <radialGradient
       inkscape:collect="always"
       xlink:href="#linearGradient26090"
       id="radialGradient26092"
       cx="40.805077"
       cy="34.786205"
       fx="40.805077"
       fy="34.786205"
       r="17.505934"
       gradientTransform="matrix(0.62944951,0.92900436,-0.68366315,0.69496177,20.455129,-22.712643)"
       gradientUnits="userSpaceOnUse" />
    <filter
       inkscape:collect="always"
       style="color-interpolation-filters:sRGB"
       id="filter26098"
       x="-0.1266641"
       y="-0.10336104"
       width="1.2533282"
       height="1.2067221">
      <feGaussianBlur
         inkscape:collect="always"
         stdDeviation="1.8635054"
         id="feGaussianBlur26100" />
    </filter>
    <filter
       inkscape:collect="always"
       style="color-interpolation-filters:sRGB"
       id="filter26174"
       x="-0.021253915"
       y="-0.019270741"
       width="1.0425078"
       height="1.0385415">
      <feGaussianBlur
         inkscape:collect="always"
         stdDeviation="0.38890559"
         id="feGaussianBlur26176" />
    </filter>
    <filter
       inkscape:collect="always"
       style="color-interpolation-filters:sRGB"
       id="filter26270"
       x="-0.040623559"
       y="-0.040623559"
       width="1.0812471"
       height="1.0812471">
      <feGaussianBlur
         inkscape:collect="always"
         stdDeviation="0.84632413"
         id="feGaussianBlur26272" />
    </filter>
    <clipPath
       clipPathUnits="userSpaceOnUse"
       id="clipPath33060">
      <path
         id="path33062"
         style="stroke-width:1.06709;stroke-linecap:square;stroke-linejoin:round;stroke-opacity:0.666667"
         d="M 16.744717,19.212285 H 87.362943 V 97.097913 H 16.744717 Z" />
    </clipPath>
    <filter
       inkscape:collect="always"
       style="color-interpolation-filters:sRGB"
       id="filter17918"
       x="-0.012142069"
       y="-0.030039628"
       width="1.0242841"
       height="1.0600793">
      <feGaussianBlur
         inkscape:collect="always"
         stdDeviation="0.034649375"
         id="feGaussianBlur17920" />
    </filter>
  </defs>
  <g
     inkscape:groupmode="layer"
     id="layer2"
     inkscape:label="Info">
    <text
       xml:space="preserve"
       style="font-size:7.40833px;line-height:1.5;font-family:sans-serif;-inkscape-font-specification:Normal;letter-spacing:0px;white-space:pre;inline-size:121.63;display:inline;stroke-width:0.264583"
       x="225.85307"
       y="22.135895"
       id="text31908"
       transform="translate(-349.45272,-11.725567)"
       inkscape:label="Info"><tspan
         x="225.85307"
         y="22.135895"
         id="tspan4934"><tspan
           style="font-weight:bold;-inkscape-font-specification:'sans-serif Bold'"
           id="tspan4932">Bingo Card Creator
</tspan></tspan><tspan
         x="225.85307"
         y="33.24839"
         id="tspan4938"><tspan
   style="font-weight:bold;-inkscape-font-specification:'sans-serif Bold'"
   id="tspan4936">Template sample file</tspan>
</tspan><tspan
         x="225.85307"
         y="44.360888"
         id="tspan4940">
</tspan><tspan
         x="225.85307"
         y="55.473383"
         id="tspan4942">Changes can be applied to the </tspan><tspan
         x="225.85307"
         y="66.585879"
         id="tspan4944">top left bingo area.
</tspan><tspan
         x="225.85307"
         y="77.698374"
         id="tspan4946">
</tspan><tspan
         x="225.85307"
         y="88.81087"
         id="tspan4948">Use the XML-Editor to explore </tspan><tspan
         x="225.85307"
         y="99.923365"
         id="tspan4950">the specific attributes of the </tspan><tspan
         x="225.85307"
         y="111.03586"
         id="tspan4952">white bingo-area rectangle).
</tspan><tspan
         x="225.85307"
         y="122.14836"
         id="tspan4954">
</tspan><tspan
         x="225.85307"
         y="133.26085"
         id="tspan4956">Run Extensions &gt; Render &gt; </tspan><tspan
         x="225.85307"
         y="144.37335"
         id="tspan4958">Bingo Card Creator to include </tspan><tspan
         x="225.85307"
         y="155.48583"
         id="tspan4960">randomized numbers into each </tspan><tspan
         x="225.85307"
         y="166.59832"
         id="tspan4962">bingo area field.</tspan></text>
  </g>
  <g
     inkscape:label="Layer 1"
     inkscape:groupmode="layer"
     id="layer1">
    <g
       id="g59320"
       transform="matrix(1.41606,0,0,1.15554,-13.612255,-18.165592)"
       style="stroke-width:0.781746"
       inkscape:label="Change this  content">
      <g
         id="g31818"
         transform="matrix(1,0,0,1.0426266,-0.08513425,-1.1084216)"
         style="stroke-width:0.765598">
        <rect
           style="fill:url(#meshgradient24174);fill-opacity:1;stroke-width:1.04505;stroke-linecap:square;stroke-linejoin:round;stroke-opacity:0.666667"
           id="rect57790"
           width="70.618225"
           height="77.885628"
           x="12.822856"
           y="21.098289" />
        <rect
           style="display:inline;mix-blend-mode:normal;fill:none;fill-opacity:1;stroke:#0d0d6b;stroke-width:0.15312;stroke-linecap:square;stroke-linejoin:round;stroke-opacity:1"
           id="rect26210"
           width="61.926163"
           height="68.299057"
           x="17.168886"
           y="25.891571" />
        <rect
           style="fill:none;fill-opacity:1;stroke:#0d0d6b;stroke-width:0.7656;stroke-linecap:square;stroke-linejoin:round;stroke-opacity:0.666667;filter:url(#filter26174)"
           id="rect26158"
           width="61.926163"
           height="68.299057"
           x="17.168886"
           y="25.891571" />
        <g
           id="g26104"
           transform="translate(-3.9218612,1.8860045)"
           style="opacity:0.70754352;stroke-width:0.753589"
           clip-path="url(#clipPath33060)">
          <ellipse
             style="opacity:0.73997;mix-blend-mode:normal;fill:#48696a;fill-opacity:1;stroke-width:1.04505;stroke-linecap:square;stroke-linejoin:round;stroke-opacity:0.666667;filter:url(#filter26098)"
             id="ellipse26094"
             cx="37.83403"
             cy="44.402138"
             rx="17.654619"
             ry="21.634907" />
          <ellipse
             style="opacity:1;fill:url(#radialGradient26092);fill-opacity:1;stroke-width:1.04505;stroke-linecap:square;stroke-linejoin:round;stroke-opacity:0.666667"
             id="path26084"
             cx="37.460342"
             cy="43.084488"
             rx="17.654619"
             ry="20.750387" />
        </g>
        <rect
           style="opacity:0.954247;fill:#131083;fill-opacity:1;stroke-width:1.05965;stroke-linecap:square;stroke-linejoin:round;stroke-opacity:0.666667;filter:url(#filter26270)"
           id="rect26268"
           width="50"
           height="50"
           x="24.253036"
           y="40.536373"
           bingo-font-size="5"
           bingo-rows="5"
           bingo-columns="5"
           transform="matrix(1,0,0,0.97263546,0,1.8484638)" />
      </g>
      <rect
         style="fill:#ffffff;fill-opacity:1;stroke-width:1.06709;stroke-linecap:square;stroke-linejoin:round;stroke-opacity:0.666667"
         id="bingo-area_1"
         width="50"
         height="50"
         x="24.167902"
         y="42.159058"
         bingo-font-size="5"
         bingo-rows="5"
         bingo-columns="5"
         bingo-render-grid="false"
         bingo-headline="none"
         bingo-color="#0a165f"
         bingo-free="3.3" />
      <g
         aria-label="B I N G O"
         transform="matrix(0.90334088,0,0,1.1070018,-0.08513425,-0.20907276)"
         id="text26180"
         style="font-size:12.9386px;line-height:1;-inkscape-font-specification:Normal;letter-spacing:0px;opacity:0.920007;fill:#cde8fc;stroke:#0d0d6b;stroke-width:0.234524;stroke-opacity:0.666667">
        <path
           d="m 33.242405,26.657721 q -0.303249,0 -0.454873,0.04422 v -0.562273 h 0.657038 q 1.661549,0 2.5018,0.62545 0.770756,0.568591 0.770756,1.585737 0,0.808662 -0.593861,1.351982 -0.587544,0.537003 -1.592055,0.650721 v 0.02527 q 1.87635,0.252707 2.438623,1.351982 0.208483,0.391696 0.208483,0.922381 0,0.524367 -0.183212,0.972922 -0.183213,0.448555 -0.568591,0.783392 -0.827615,0.707579 -2.407034,0.707579 h -1.231947 v -0.555955 q 0.138989,0.03791 0.568591,0.03791 1.092958,0 1.604689,-0.442237 0.511732,-0.442238 0.511732,-1.421477 0,-0.97924 -0.555955,-1.503607 -0.549638,-0.524367 -1.674184,-0.524367 h -0.454873 v -0.555956 h 0.240072 q 1.977432,0 1.977432,-1.787902 0,-1.705772 -1.762631,-1.705772 z m -0.97924,8.459367 h -2.457576 v -0.372743 q 0.170577,-0.07581 0.328519,-0.120035 0.16426,-0.04422 0.290613,-0.113719 0.265343,-0.151624 0.265343,-0.555955 v -6.652512 q 0,-0.404332 -0.265343,-0.555956 -0.126353,-0.06949 -0.290613,-0.113718 -0.157942,-0.04422 -0.328519,-0.120036 v -0.372743 h 2.457576 z"
           style="font-family:'Stardos Stencil';-inkscape-font-specification:'Stardos Stencil'"
           id="path31914" />
        <path
           d="m 45.062775,26.139671 v 0.372743 q -0.183212,0.07581 -0.347472,0.120036 -0.164259,0.04422 -0.284295,0.113718 -0.27166,0.151624 -0.27166,0.555956 v 6.652512 q 0,0.404331 0.27166,0.555955 0.126353,0.0695 0.290613,0.113719 0.164259,0.04422 0.35379,0.120035 v 0.372743 h -3.405227 v -0.372743 q 0.183212,-0.07581 0.347472,-0.120035 0.164259,-0.04422 0.290613,-0.113719 0.277977,-0.151624 0.277977,-0.555955 v -6.652512 q 0,-0.404332 -0.277977,-0.555956 -0.126354,-0.06949 -0.290613,-0.113718 -0.16426,-0.04422 -0.347472,-0.120036 v -0.372743 z"
           style="font-family:'Stardos Stencil';-inkscape-font-specification:'Stardos Stencil'"
           id="path31916" />
        <path
           d="m 55.954449,31.756085 v -4.453961 q 0,-0.341155 -0.315884,-0.524367 -0.138989,-0.07581 -0.315884,-0.138989 -0.170577,-0.06318 -0.341154,-0.138989 v -0.372743 h 2.640788 v 0.372743 q -0.157942,0.07581 -0.328519,0.138989 -0.16426,0.06318 -0.296931,0.138989 -0.315884,0.183212 -0.315884,0.524367 v 5.591143 z M 51.05825,28.407717 v 5.534284 q 0,0.347472 0.328519,0.518049 0.145307,0.08213 0.334837,0.145307 0.195848,0.06318 0.398013,0.138988 v 0.372743 h -2.779777 v -0.372743 q 0.176895,-0.07581 0.35379,-0.138988 0.176895,-0.06318 0.315884,-0.145307 0.322201,-0.176895 0.322201,-0.518049 v -6.481935 z m 0.02527,-0.783392 q -0.675992,-0.796027 -1.351983,-0.998193 -0.176895,-0.05686 -0.347472,-0.113718 v -0.372743 h 2.463893 l 4.833022,7.644388 v 1.383571 h -0.928698 z"
           style="font-family:'Stardos Stencil';-inkscape-font-specification:'Stardos Stencil'"
           id="path31918" />
        <path
           d="m 67.831679,26.55032 q 0.221119,0 0.328519,-0.334837 H 68.6972 v 3.146203 h -0.423284 q -0.265342,-0.334837 -0.454872,-0.903428 -0.189531,-0.568591 -0.309567,-0.865521 -0.113718,-0.296931 -0.303248,-0.537003 -0.423284,-0.524367 -1.200358,-0.568591 v -0.537002 q 0.56859,0.03791 0.991875,0.233754 0.429602,0.195848 0.587544,0.284295 0.157941,0.08213 0.246389,0.08213 z m 1.048734,7.037891 q 0,0.581226 0.208483,1.036099 l -0.240071,0.145306 q -0.657039,0.18953 -1.832126,0.18953 -0.06318,0 -0.284296,0.08213 -0.423284,0.145307 -0.726532,0.202166 v -0.454873 q 0.713897,-0.03791 1.017145,-0.568591 0.284296,-0.499096 0.284296,-1.573101 0,-0.587544 -0.03791,-0.821298 -0.03791,-0.233754 -0.145307,-0.322201 -0.1074,-0.09477 -0.259024,-0.145307 -0.145307,-0.05686 -0.315884,-0.08845 -0.170578,-0.03159 -0.322202,-0.08845 v -0.423284 h 3.310462 q -0.03159,0.227436 -0.138989,0.360108 -0.101082,0.132671 -0.214801,0.259024 -0.303248,0.334837 -0.303248,0.78971 z m -3.398909,-7.069479 q -1.781585,0.35379 -1.781585,4.144395 0,3.095661 1.08664,3.822194 0.322202,0.214801 0.694945,0.277977 v 0.511732 q -1.629961,0 -2.602883,-1.269853 -0.960286,-1.269852 -0.960286,-3.379956 0,-1.888985 0.985557,-3.203062 1.010828,-1.339347 2.577612,-1.4657 z"
           style="font-family:'Stardos Stencil';-inkscape-font-specification:'Stardos Stencil'"
           id="path31920" />
        <path
           d="m 77.548263,35.306619 q -1.617325,-0.113719 -2.672376,-1.465701 -1.023464,-1.314077 -1.023464,-3.215697 0,-1.888985 1.023464,-3.203062 1.055051,-1.351982 2.672376,-1.4657 v 0.518049 q -0.928698,0.09476 -1.396206,0.985558 -0.524367,1.023463 -0.524367,3.165155 0,3.146202 1.130864,3.88537 0.35379,0.227437 0.789709,0.271661 z m 0.524367,-0.524367 q 1.41516,-0.145307 1.781585,-2.255411 0.138989,-0.777074 0.138989,-1.90162 0,-3.133567 -1.130864,-3.872735 -0.35379,-0.227436 -0.78971,-0.277978 v -0.524367 q 1.629961,0.113718 2.678695,1.459383 1.029781,1.320394 1.029781,3.215697 0,1.895303 -1.029781,3.215697 -1.048734,1.345665 -2.678695,1.459383 z"
           style="font-family:'Stardos Stencil';-inkscape-font-specification:'Stardos Stencil'"
           id="path31922" />
      </g>
      <path
         id="line25311"
         style="fill:none;stroke:#0a165f;stroke-width:0.374457;stroke-linecap:square;stroke-opacity:1"
         d="m 24.167934,42.159056 v 50 m 10,-50 v 50 m 10,-50 v 50 m 10,-50 v 50 m 10,-50 4e-5,50 m 10,-50 v 50 m -50,-50 h 50 m -50,10 h 50 m -50,10 h 50 m -50,10 h 50 m -50,10 50,3e-6 m -50,10 h 50"
         sodipodi:nodetypes="cccccccccccccccccccccccc"
         inkscape:label="grid" />
      <text
         xml:space="preserve"
         style="font-size:9.9282px;line-height:1;font-family:sans-serif;-inkscape-font-specification:Normal;letter-spacing:0px;stroke-width:0.161694"
         x="189.17595"
         y="28.740969"
         id="text31862"
         transform="scale(0.90334088,1.1070018)"><tspan
           sodipodi:role="line"
           id="tspan31860"
           style="stroke-width:0.161694"
           x="189.17595"
           y="28.740969" /></text>
      <g
         aria-label="Free"
         transform="scale(0.90334089,1.1070018)"
         id="text6998"
         style="font-size:2.2456px;line-height:1;font-family:'Rock Salt';-inkscape-font-specification:'Rock Salt';letter-spacing:0px;stroke-width:0.161694;fill:#201e80;fill-opacity:1">
        <path
           id="path17916"
           d="m 57.874618,60.356508 v 0.0088 q -0.01535,0.0044 -0.01535,0.02193 -0.02412,0.01096 -0.05044,0.01754 -0.02632,0.0044 -0.05044,0.01535 -0.02412,-0.0022 -0.05044,-0.0022 -0.02412,-0.0022 -0.04825,-0.0022 -0.06579,0 -0.131578,0.0044 -0.06579,0.0044 -0.131578,0 -0.0307,0.01754 -0.06798,0.02851 -0.03509,0.0088 -0.06798,0.0088 -0.02632,0 -0.04605,-0.0066 -0.05263,0.02631 -0.116228,0.04386 -0.0614,0.01754 -0.124999,0.03509 -0.0636,0.01535 -0.122806,0.03728 -0.05702,0.01974 -0.100877,0.05702 -0.0044,0.0307 -0.0066,0.0614 -0.0022,0.02851 -0.0022,0.05702 0,0.0307 0.0022,0.05702 0.0044,0.02632 0.01535,0.05263 0.01096,0.0044 0.02412,0.0066 0.01535,0.0022 0.02632,0.0022 0.01096,0 0.02193,-0.0022 0.01096,-0.0044 0.01535,-0.01535 0.03289,-0.0044 0.06579,-0.0022 0.0329,0 0.06579,0 0.0329,0 0.0636,-0.0022 0.0329,-0.0022 0.0636,-0.01096 0.03509,-0.0088 0.06798,-0.01096 0.03509,-0.0022 0.06798,-0.0044 0.03289,-0.0022 0.06798,-0.0066 0.03509,-0.0066 0.07237,-0.02412 0.02851,0.01096 0.05702,0.01096 0.0307,0 0.05921,0.0044 0.01535,0.01096 0.02412,0.02412 0.01096,0.01316 0.01096,0.0307 0,0.0307 -0.02193,0.0614 -0.02193,0.0307 -0.03509,0.05702 h -0.02412 q -0.05263,0 -0.103069,0.01535 -0.04825,0.01316 -0.09868,0.03289 -0.04825,0.01754 -0.09868,0.0329 -0.04825,0.01316 -0.100877,0.01316 -0.0088,0 -0.01096,0.01097 0,0.0088 -0.0044,0.01316 -0.01096,-0.0022 -0.03289,-0.0022 -0.05044,0 -0.09649,0.01097 -0.04605,0.01096 -0.0943,0.01096 -0.01316,0 -0.02632,0 -0.01316,-0.0022 -0.02632,-0.0044 -0.01096,0.01754 -0.02851,0.02412 -0.01754,0.0044 -0.0329,0.01754 -0.0066,0.01974 -0.0088,0.04825 0,0.02851 -0.0022,0.05921 0,0.02851 -0.0044,0.05482 -0.0044,0.02632 -0.01754,0.04167 0.0022,0.01097 0.01754,0.0088 0.01535,-0.0044 0.01535,0.01316 0,0.01974 -0.0044,0.04167 -0.0044,0.02193 -0.0044,0.04386 0,0.04167 0.0088,0.09211 0.01097,0.04824 0.0307,0.08991 0.02193,0.04167 0.05702,0.07017 0.03509,0.02632 0.08772,0.02632 0.03509,0 0.06579,-0.01316 0.0307,-0.01316 0.05044,-0.04386 l 0.01096,-0.0022 q 0.0088,0 0.01535,0.0022 0.0088,0.0022 0.01754,0.0022 0.01316,0 0.03289,-0.01535 0.02193,-0.01754 0.04605,-0.03947 0.02632,-0.02193 0.05263,-0.04167 0.02632,-0.02193 0.05044,-0.0307 0.01535,-0.0307 0.02851,-0.0614 0.01535,-0.0307 0.04386,-0.04825 v -0.0636 q 0.02193,-0.02412 0.04605,-0.04386 0.02632,-0.01974 0.03947,-0.05044 0.01096,0.0044 0.01974,0.0066 0.01096,0.0022 0.02193,0.0022 0.01096,0 0.02193,-0.0022 0.01316,-0.0022 0.02412,-0.0066 0.01754,0.02412 0.02632,0.05482 0.01096,0.02851 0.02632,0.05482 -0.01974,0.03947 -0.04605,0.0943 -0.02632,0.05482 -0.05702,0.109648 -0.0307,0.05482 -0.06579,0.105263 -0.03289,0.04824 -0.06579,0.07456 -0.0066,0.0066 -0.02851,0.01535 -0.02412,0.01754 -0.04386,0.03289 -0.01974,0.01754 -0.03728,0.03947 -0.0636,0.01974 -0.122806,0.05263 -0.05702,0.03289 -0.114034,0.0636 -0.02632,-0.0066 -0.05702,-0.0066 -0.02632,0 -0.05263,0.0022 -0.02631,0.0044 -0.05702,0.0044 -0.0088,-0.01096 -0.02631,-0.01535 -0.01535,-0.0022 -0.01096,-0.02193 -0.07456,-0.0044 -0.120614,-0.04167 -0.04605,-0.03509 -0.07895,-0.08772 -0.0307,-0.05263 -0.05044,-0.114034 -0.01974,-0.0614 -0.04167,-0.118421 v -0.0066 q 0,-0.01096 0.0088,-0.01316 0.0088,-0.0022 0.0088,-0.01316 0,-0.0044 -0.0022,-0.0066 -0.0066,-0.02412 -0.01097,-0.04167 -0.0044,-0.01754 -0.0044,-0.04167 0,-0.03509 0.0044,-0.06798 0.0044,-0.03509 0.0044,-0.07017 0,-0.03509 -0.0088,-0.0614 0.0088,-0.01096 0.01535,-0.02851 0.0044,-0.01974 0.0066,-0.03947 0.0022,-0.01974 0.0022,-0.03947 0.0022,-0.01974 0.0066,-0.03509 -0.0088,-0.02412 -0.01535,-0.04167 -0.0066,-0.01974 -0.0066,-0.04605 v -0.01535 q 0.02193,-0.03728 0.03728,-0.07675 0.01535,-0.03947 0.03289,-0.08114 v -0.0066 q 0,-0.0636 -0.0044,-0.127192 -0.0044,-0.0636 -0.0044,-0.127193 v -0.04167 q 0,-0.02193 0.0022,-0.04167 0.01754,-0.0088 0.02632,-0.02412 0.0088,-0.01535 0.02632,-0.02412 h 0.07237 l 0.01316,-0.02193 q 0.0066,-0.01096 0.0088,-0.02412 0.02412,-0.0066 0.04605,-0.01754 0.02412,-0.01316 0.04386,-0.02632 0.0307,-0.01754 0.05482,-0.0307 0.02632,-0.01535 0.05044,-0.02412 0.02632,-0.01096 0.05482,-0.01754 0.02851,-0.0066 0.06579,-0.01096 0.01754,0 0.02193,-0.0066 0.0066,-0.0066 0.01754,-0.01535 0.02631,0.0044 0.05263,0.0088 0.02632,0.0022 0.05263,0.0022 0.05263,0 0.09868,-0.01974 0.06579,0 0.129385,-0.0022 0.06579,-0.0022 0.131578,-0.0022 0.05702,0 0.114034,0.0044 0.05702,0.0044 0.111842,0.01535 0.01974,-0.0066 0.04386,-0.0066 0.02632,0 0.05263,0.0066 0.02851,0.0044 0.05482,0 0.0022,0.02412 0.01096,0.04167 0.01096,0.01535 0.01096,0.03728 z m -1.282886,0 v 0.0088 q -0.01535,0.0044 -0.01535,0.02193 -0.02412,0.01096 -0.05044,0.01754 -0.02632,0.0044 -0.05044,0.01535 -0.02412,-0.0022 -0.05044,-0.0022 -0.02412,-0.0022 -0.04825,-0.0022 -0.06579,0 -0.131578,0.0044 -0.06579,0.0044 -0.131578,0 -0.0307,0.01754 -0.06798,0.02851 -0.03509,0.0088 -0.06798,0.0088 -0.02632,0 -0.04605,-0.0066 -0.05263,0.02631 -0.116227,0.04386 -0.0614,0.01754 -0.124999,0.03509 -0.0636,0.01535 -0.122806,0.03728 -0.05702,0.01974 -0.100877,0.05702 -0.0044,0.0307 -0.0066,0.0614 -0.0022,0.02851 -0.0022,0.05702 0,0.0307 0.0022,0.05702 0.0044,0.02632 0.01535,0.05263 0.01097,0.0044 0.02412,0.0066 0.01535,0.0022 0.02632,0.0022 0.01097,0 0.02193,-0.0022 0.01096,-0.0044 0.01535,-0.01535 0.03289,-0.0044 0.06579,-0.0022 0.03289,0 0.06579,0 0.03289,0 0.0636,-0.0022 0.03289,-0.0022 0.0636,-0.01096 0.03509,-0.0088 0.06798,-0.01096 0.03509,-0.0022 0.06798,-0.0044 0.03289,-0.0022 0.06798,-0.0066 0.03509,-0.0066 0.07237,-0.02412 0.02851,0.01096 0.05702,0.01096 0.0307,0 0.05921,0.0044 0.01535,0.01096 0.02412,0.02412 0.01096,0.01316 0.01096,0.0307 0,0.0307 -0.02193,0.0614 -0.02193,0.0307 -0.03509,0.05702 h -0.02412 q -0.05263,0 -0.10307,0.01535 -0.04825,0.01316 -0.09868,0.03289 -0.04824,0.01754 -0.09868,0.0329 -0.04825,0.01316 -0.100876,0.01316 -0.0088,0 -0.01096,0.01097 0,0.0088 -0.0044,0.01316 -0.01096,-0.0022 -0.03289,-0.0022 -0.05044,0 -0.09649,0.01097 -0.04605,0.01096 -0.0943,0.01096 -0.01316,0 -0.02632,0 -0.01316,-0.0022 -0.02632,-0.0044 -0.01096,0.01754 -0.02851,0.02412 -0.01754,0.0044 -0.03289,0.01754 -0.0066,0.01974 -0.0088,0.04825 0,0.02851 -0.0022,0.05921 0,0.02851 -0.0044,0.05482 -0.0044,0.02632 -0.01754,0.04167 0.0022,0.01097 0.01754,0.0088 0.01535,-0.0044 0.01535,0.01316 0,0.01974 -0.0044,0.04167 -0.0044,0.02193 -0.0044,0.04386 0,0.04167 0.0088,0.09211 0.01096,0.04824 0.0307,0.08991 0.02193,0.04167 0.05702,0.07017 0.03509,0.02632 0.08772,0.02632 0.03509,0 0.06579,-0.01316 0.0307,-0.01316 0.05044,-0.04386 l 0.01096,-0.0022 q 0.0088,0 0.01535,0.0022 0.0088,0.0022 0.01754,0.0022 0.01316,0 0.03289,-0.01535 0.02193,-0.01754 0.04605,-0.03947 0.02632,-0.02193 0.05263,-0.04167 0.02632,-0.02193 0.05044,-0.0307 0.01535,-0.0307 0.02851,-0.0614 0.01535,-0.0307 0.04386,-0.04825 v -0.0636 q 0.02193,-0.02412 0.04605,-0.04386 0.02631,-0.01974 0.03947,-0.05044 0.01096,0.0044 0.01974,0.0066 0.01096,0.0022 0.02193,0.0022 0.01096,0 0.02193,-0.0022 0.01316,-0.0022 0.02412,-0.0066 0.01754,0.02412 0.02631,0.05482 0.01096,0.02851 0.02632,0.05482 -0.01974,0.03947 -0.04605,0.0943 -0.02632,0.05482 -0.05702,0.109648 -0.0307,0.05482 -0.06579,0.105263 -0.03289,0.04824 -0.06579,0.07456 -0.0066,0.0066 -0.02851,0.01535 -0.02412,0.01754 -0.04386,0.03289 -0.01974,0.01754 -0.03728,0.03947 -0.0636,0.01974 -0.122806,0.05263 -0.05702,0.03289 -0.114035,0.0636 -0.02632,-0.0066 -0.05702,-0.0066 -0.02631,0 -0.05263,0.0022 -0.02632,0.0044 -0.05702,0.0044 -0.0088,-0.01096 -0.02632,-0.01535 -0.01535,-0.0022 -0.01096,-0.02193 -0.07456,-0.0044 -0.120613,-0.04167 -0.04605,-0.03509 -0.07895,-0.08772 -0.0307,-0.05263 -0.05044,-0.114034 -0.01974,-0.0614 -0.04167,-0.118421 v -0.0066 q 0,-0.01096 0.0088,-0.01316 0.0088,-0.0022 0.0088,-0.01316 0,-0.0044 -0.0022,-0.0066 -0.0066,-0.02412 -0.01096,-0.04167 -0.0044,-0.01754 -0.0044,-0.04167 0,-0.03509 0.0044,-0.06798 0.0044,-0.03509 0.0044,-0.07017 0,-0.03509 -0.0088,-0.0614 0.0088,-0.01096 0.01535,-0.02851 0.0044,-0.01974 0.0066,-0.03947 0.0022,-0.01974 0.0022,-0.03947 0.0022,-0.01974 0.0066,-0.03509 -0.0088,-0.02412 -0.01535,-0.04167 -0.0066,-0.01974 -0.0066,-0.04605 v -0.01535 q 0.02193,-0.03728 0.03728,-0.07675 0.01535,-0.03947 0.03289,-0.08114 v -0.0066 q 0,-0.0636 -0.0044,-0.127192 -0.0044,-0.0636 -0.0044,-0.127193 v -0.04167 q 0,-0.02193 0.0022,-0.04167 0.01754,-0.0088 0.02632,-0.02412 0.0088,-0.01535 0.02632,-0.02412 h 0.07237 l 0.01316,-0.02193 q 0.0066,-0.01096 0.0088,-0.02412 0.02412,-0.0066 0.04605,-0.01754 0.02412,-0.01316 0.04386,-0.02632 0.0307,-0.01754 0.05482,-0.0307 0.02632,-0.01535 0.05044,-0.02412 0.02631,-0.01096 0.05482,-0.01754 0.02851,-0.0066 0.06579,-0.01096 0.01754,0 0.02193,-0.0066 0.0066,-0.0066 0.01754,-0.01535 0.02632,0.0044 0.05263,0.0088 0.02632,0.0022 0.05263,0.0022 0.05263,0 0.09868,-0.01974 0.06579,0 0.129385,-0.0022 0.06579,-0.0022 0.131579,-0.0022 0.05702,0 0.114034,0.0044 0.05702,0.0044 0.111841,0.01535 0.01974,-0.0066 0.04386,-0.0066 0.02631,0 0.05263,0.0066 0.02851,0.0044 0.05482,0 0.0022,0.02412 0.01096,0.04167 0.01096,0.01535 0.01096,0.03728 z m -0.765346,1.013151 q -0.0044,0.0329 -0.02412,0.05044 -0.01754,0.01754 -0.04167,0.03289 -0.01096,-0.0022 -0.02193,-0.0022 -0.0088,-0.0022 -0.01974,-0.0022 -0.06798,-0.0022 -0.129385,0.01754 -0.05921,0.01974 -0.122806,0.02851 -0.02193,0.0044 -0.04167,0.0044 -0.01754,-0.0022 -0.03728,0.0022 -0.07017,0.01096 -0.149122,0.01754 -0.07895,0.0066 -0.157894,0.01754 -0.07895,0.0088 -0.155701,0.02412 -0.07456,0.01316 -0.14035,0.03947 -0.0066,-0.0044 -0.01316,-0.0088 -0.0066,-0.0066 -0.01535,-0.0066 -0.02193,0 -0.04167,0.0066 -0.01974,0.0066 -0.03947,0.0044 -0.02193,0.01316 -0.04825,0.01974 -0.02412,0.0044 -0.05044,0.0088 -0.02412,0.0022 -0.04825,0.0088 -0.02412,0.0066 -0.04605,0.02412 -0.01754,-0.0088 -0.04386,-0.0088 -0.02412,-0.0022 -0.03289,-0.01754 -0.05044,0.02412 -0.107456,0.0307 -0.05482,0.0066 -0.111841,0.0044 -0.03728,-0.0022 -0.08553,-0.01096 -0.04825,-0.0088 -0.09649,-0.02412 -0.04825,-0.01754 -0.08991,-0.03947 -0.04167,-0.02412 -0.0636,-0.05702 -0.01535,-0.02193 -0.02193,-0.04825 -0.0066,-0.02632 -0.0307,-0.03947 0.0066,-0.05044 0.01535,-0.09868 0.0088,-0.04825 0.01754,-0.09868 0.04386,-0.03728 0.08333,-0.07895 0.03947,-0.04167 0.07456,-0.08772 0.04167,-0.01974 0.07675,-0.04825 0.03728,-0.02851 0.07237,-0.05702 0.03728,-0.0307 0.07237,-0.05921 0.03728,-0.02851 0.07895,-0.05044 0.0066,-0.01535 0.01754,-0.02412 0.01316,-0.01096 0.02632,-0.01974 0.01316,-0.01096 0.02412,-0.02193 0.01096,-0.01316 0.01535,-0.0307 0.07675,-0.04605 0.133771,-0.116227 0.05702,-0.07017 0.07456,-0.157894 -0.03728,-0.0307 -0.08552,-0.03947 -0.04605,-0.01096 -0.09649,-0.01535 -0.04386,-0.0022 -0.09211,0 -0.04605,0.0022 -0.0943,-0.0022 -0.04825,0.01535 -0.100877,0.01974 -0.05044,0.0044 -0.100877,0.0088 -0.05044,0.0022 -0.100876,0.01316 -0.04825,0.0088 -0.0943,0.03509 -0.0088,0 -0.01754,-0.0022 -0.0066,-0.0022 -0.01535,-0.0022 -0.07017,-0.0022 -0.131578,0.02851 -0.0614,0.02851 -0.120614,0.05702 -0.0044,0.0088 -0.0044,0.01316 0,0.01316 0.0044,0.02632 0.0066,0.01096 0.0066,0.02412 -0.0022,0.0022 -0.0022,0.0044 0,0.0022 -0.0022,0.0044 -0.0022,0.01096 -0.0066,0.01974 -0.0022,0.0088 -0.0066,0.01974 -0.02412,0.07017 -0.02632,0.138157 -0.0022,0.05702 0,0.111841 0.0022,0.05482 0,0.111842 -0.0044,0.07017 -0.02193,0.131578 0.01096,0.05263 0.01974,0.111841 0.0088,0.05702 0.02193,0.114035 0.01316,0.05702 0.0307,0.111841 0.01974,0.05263 0.05044,0.100877 -0.0022,0.0044 0.0022,0.0066 0.0044,0.0022 0.0088,0.0022 h 0.01754 q 0.01096,0 0.0088,0.0088 0.0044,0.0066 0.0066,0.01316 0.0022,0.0044 0.0088,0.0088 0.0044,0.0066 0,0.01754 -0.0022,0.04386 -0.02193,0.08114 -0.01974,0.03728 -0.02412,0.08114 -0.02631,0.0066 -0.04825,0.0066 -0.03728,-0.0022 -0.06579,-0.02193 -0.02851,-0.01754 -0.05263,-0.04386 -0.02412,-0.02631 -0.04605,-0.05263 -0.02193,-0.02851 -0.04825,-0.04825 -0.01535,-0.0614 -0.0307,-0.135964 -0.01316,-0.07456 -0.04605,-0.127193 0.0088,-0.01974 0.0088,-0.04825 0.0022,-0.04386 -0.0088,-0.08553 -0.0088,-0.04386 -0.0044,-0.08772 0,-0.02412 0.0044,-0.04825 0.0066,-0.02412 0.0088,-0.04825 0.0022,-0.03728 -0.0088,-0.07237 -0.0088,-0.03509 -0.0066,-0.07237 0.0022,-0.01754 0.0066,-0.03289 0.0066,-0.01754 0.01754,-0.0307 -0.01096,-0.02632 -0.0066,-0.05044 0.0022,-0.03728 0.0088,-0.07017 0.0066,-0.0329 0.0088,-0.06579 0,-0.01754 -0.0022,-0.0329 -0.0022,-0.01754 -0.0066,-0.03289 l -0.01974,-0.0066 q -0.01316,0 -0.02631,0.0066 -0.01097,0.0066 -0.01974,0.01535 -0.0088,0.0088 -0.01535,0.01535 -0.0066,0.0044 -0.01316,0.0044 -0.0044,0 -0.01096,0 -0.0044,-0.0022 -0.0088,-0.0022 -0.0044,0 -0.01754,0.0088 -0.01096,0.0088 -0.02851,0.01974 -0.01535,0.0088 -0.0307,0.01974 -0.01535,0.0088 -0.02412,0.01096 -0.02412,-0.0044 -0.03947,-0.01535 -0.01316,-0.01316 -0.02632,-0.02412 -0.01097,-0.01316 -0.02412,-0.02193 -0.01316,-0.01096 -0.03289,-0.0088 -0.0066,-0.01316 -0.0066,-0.02851 -0.0022,-0.01535 0,-0.0307 v -0.03509 q 0.01535,-0.02851 0.04167,-0.04605 0.02412,-0.01974 0.05263,-0.03289 l 0.05702,-0.02632 q 0.02851,-0.01316 0.05263,-0.03289 h 0.01974 q 0.03947,0.0022 0.06798,-0.01535 0.0307,-0.01754 0.05702,-0.03947 0.02631,-0.02412 0.05263,-0.04825 0.02851,-0.02412 0.0614,-0.03728 0.02412,0.01096 0.05044,0.01974 0.02632,0.0066 0.05483,0.0088 0.02851,0 0.05921,-0.0088 0.0307,-0.0088 0.04825,-0.03289 0.01096,0.0044 0.01754,0.0066 0.0088,0 0.01974,0 0.03289,0.0022 0.06579,-0.0088 0.03289,-0.01316 0.0636,-0.0307 0.04386,0.0022 0.08553,-0.0044 0.04386,-0.0088 0.08552,-0.01754 0.04386,-0.0088 0.08553,-0.01535 0.04386,-0.0088 0.08772,-0.0066 0.07237,0.0022 0.142543,-0.01316 0.07017,-0.01535 0.142543,-0.01096 0.05044,0.0022 0.09868,0.0088 0.05044,0.0044 0.100877,0.0022 0.02851,0.01316 0.05044,0.02412 0.02412,0.0088 0.05921,0.0044 0.07017,0.05921 0.127193,0.138157 v 0.03728 q -0.0022,0.05044 -0.01754,0.09868 -0.01535,0.04825 -0.03728,0.09649 -0.01974,0.04605 -0.04386,0.09211 -0.02412,0.04386 -0.04605,0.08772 -0.142543,0.129385 -0.285086,0.256577 -0.142543,0.127192 -0.293858,0.245613 -0.0044,0.02193 -0.01316,0.03947 -0.0066,0.01754 -0.0088,0.03728 0,0.01097 0.0022,0.01754 0.01535,0.0044 0.02632,0.01754 0.01316,0.01096 0.0088,0.0307 h 0.01974 q 0.01096,0 0.01096,0.0088 l 0.03509,0.0022 q 0.08333,0.0044 0.166665,-0.0044 0.08333,-0.0088 0.166666,-0.01974 0.08553,-0.01096 0.168859,-0.01974 0.08333,-0.01096 0.166665,-0.01316 0.01974,-0.0066 0.04167,-0.01097 0.02193,-0.0044 0.03947,-0.01754 h 0.0066 q 0.01535,0 0.02193,0.0088 0.0088,0.0088 0.02412,0.01097 0.01097,0 0.02193,-0.0044 0.01316,-0.0044 0.02632,-0.0066 0.0307,-0.0088 0.0636,-0.01096 0.03509,-0.0022 0.06798,-0.0066 0.127192,-0.01096 0.252191,-0.01316 0.124999,-0.0044 0.249999,-0.0329 0.01096,0.01535 0.0307,0.02193 0.01974,0.0044 0.04167,0.01097 0.02193,0.0044 0.03947,0.01096 0.01974,0.0066 0.02632,0.02631 z m -2.427617,-0.905696 q 0,0.03509 -0.01316,0.07237 -0.01096,0.03728 -0.02851,0.06798 -0.02851,0.0044 -0.05263,0.01974 -0.02193,0.01535 -0.03509,0.01974 -0.02851,0.0044 -0.06798,0.0044 -0.03728,-0.0022 -0.06798,0 -0.05921,0.0044 -0.11842,0.01316 -0.05702,0.0088 -0.114035,0.02193 -0.0044,0 -0.0088,0.0022 -0.0044,0 -0.0044,0.0044 0,0.0044 0.0022,0.0088 0.0022,0.0044 0.0022,0.0088 0,0.0066 -0.01316,0.0066 -0.02412,0 -0.03289,-0.01535 -0.07018,0.01754 -0.14035,0.03728 -0.07017,0.01754 -0.14035,0.03509 -0.03509,0.0066 -0.07017,0.01316 -0.03289,0.0066 -0.06798,0.01754 -0.01754,0.0044 -0.03509,0.01535 l -0.03509,0.02193 q -0.01096,-0.0022 -0.01974,-0.0022 -0.0088,-0.0022 -0.01754,-0.0022 -0.03728,0 -0.07895,0.01535 -0.04167,0.01316 -0.07237,0.03728 h -0.01535 q -0.02193,0 -0.0307,-0.0066 -0.01974,-0.0022 -0.02412,0.01316 -0.0044,0.01316 -0.01535,0.02412 -0.07456,0.0066 -0.146929,0.02632 -0.07237,0.01974 -0.142543,0.04386 -0.07017,0.02193 -0.142543,0.04605 -0.07017,0.02193 -0.142543,0.03509 -0.0088,0.04386 -0.0088,0.100876 0,0.04386 0.0066,0.100877 0.0088,0.05702 0.03509,0.09649 v 0.0044 q 0,0.01097 -0.0088,0.01535 -0.0088,0.0044 -0.0088,0.01535 0,0.05702 0.01096,0.107455 0.01316,0.05044 0.02632,0.09868 0.01316,0.04824 0.02412,0.09649 0.01316,0.04824 0.01316,0.09868 0,0.01316 -0.0022,0.02412 0,0.01316 -0.0022,0.02631 0.0066,0.01974 0.02193,0.0329 0.01535,0.01316 0.02631,0.0307 0.0022,0.01096 0.0022,0.01974 v 0.02193 q 0,0.03728 -0.0088,0.06579 -0.0088,0.02851 -0.02193,0.05263 -0.01316,0.02632 -0.02851,0.05044 -0.01535,0.02631 -0.02851,0.05702 -0.02193,0.0044 -0.03509,0.0044 -0.0329,0 -0.05482,-0.01754 -0.01974,-0.01754 -0.03509,-0.04386 -0.01535,-0.02412 -0.0307,-0.05044 -0.01316,-0.02631 -0.0329,-0.04386 0.0022,-0.01096 0.0022,-0.01974 0.0022,-0.0088 0.0022,-0.01974 0,-0.04386 -0.01535,-0.08553 -0.01316,-0.04167 -0.0307,-0.07895 -0.0022,-0.07456 -0.01535,-0.146929 -0.01316,-0.07237 -0.03728,-0.142543 0.0044,-0.02632 0.0066,-0.05044 0.0022,-0.02632 0.0022,-0.05044 0,-0.0636 -0.0066,-0.127192 -0.0066,-0.0636 -0.0022,-0.127192 -0.0066,-0.01097 -0.01316,-0.01754 -0.0066,-0.0088 -0.01096,-0.01974 h -0.0088 q -0.03289,0 -0.0636,0.0066 -0.0307,0.0044 -0.0614,0.0044 -0.01097,0 -0.01974,0 -0.0088,-0.0022 -0.01974,-0.0044 -0.02412,-0.02412 -0.03728,-0.05482 -0.01316,-0.0307 -0.01316,-0.0636 0,-0.04824 0.02632,-0.08772 0.05482,-0.01316 0.107455,-0.0307 0.05482,-0.01974 0.105263,-0.04605 0.0066,-0.03289 0.0066,-0.06579 0.0022,-0.03289 0.02412,-0.0614 -0.0066,-0.01754 -0.02193,-0.0307 -0.01316,-0.01535 -0.01316,-0.03509 0,-0.01096 0.0044,-0.02851 0.02193,-0.02412 0.0307,-0.0614 0.0088,-0.03728 0.01535,-0.07895 0.0066,-0.04167 0.01316,-0.08333 0.0088,-0.04167 0.02851,-0.07456 -0.0044,-0.01754 -0.0066,-0.03728 -0.0022,-0.02193 -0.0022,-0.03947 0,-0.02632 0.0022,-0.05263 0.0044,-0.02851 0.01316,-0.05263 -0.02412,-0.02851 -0.03947,-0.06579 -0.01535,-0.03947 -0.01535,-0.07675 0,-0.07237 0.07017,-0.09211 -0.0022,-0.0088 -0.0044,-0.01535 0,-0.0066 0,-0.01316 0,-0.01974 0.01097,-0.03728 0.01096,-0.01754 0.01754,-0.03509 -0.01096,-0.02851 -0.01096,-0.04825 0,-0.01754 0.0066,-0.0307 0.0066,-0.01535 0.01096,-0.03289 0.0066,-0.02193 0.0088,-0.03947 0.0044,-0.01754 0.01316,-0.0307 0.0088,-0.01316 0.02193,-0.01974 0.01535,-0.0066 0.04605,-0.0066 0.04825,0 0.0921,0.0307 0.04605,0.02851 0.07018,0.06579 0.02412,-0.0022 0.04167,-0.0088 0.01974,-0.0088 0.03509,-0.01535 0.01754,-0.0066 0.03509,-0.01096 0.01974,-0.0066 0.04605,-0.0044 0.0066,-0.01535 0.02193,-0.01974 0.01754,-0.0066 0.03509,-0.0088 0.01754,-0.0044 0.03289,-0.01096 0.01535,-0.0066 0.01974,-0.02412 0.0088,0.0066 0.01974,0.0066 0.01096,0 0.02193,-0.0022 0.01096,-0.0044 0.02412,-0.0044 0.01316,0 0.02193,0.0088 0.05702,-0.0307 0.120613,-0.04386 0.06579,-0.01535 0.129385,-0.01754 0.151315,-0.08333 0.317981,-0.114034 0.168859,-0.0307 0.337717,-0.0307 0.02412,0 0.04605,0 0.02412,-0.0022 0.04605,0.0022 0.02412,0.0044 0.05263,0.01535 0.0307,0.01096 0.05921,0.02632 0.0307,0.01535 0.05702,0.03509 0.02632,0.01754 0.04386,0.0329 0.01754,0.03947 0.01754,0.07675 0,0.01754 -0.0022,0.03509 -0.0022,0.01535 -0.0022,0.03289 0,0.02632 0.01096,0.05921 -0.0066,-0.0022 -0.02193,-0.0022 -0.01974,0 -0.03289,0.0088 -0.01316,0.0088 -0.02412,0.01974 -0.01097,0.01096 -0.02193,0.01974 -0.0088,0.0088 -0.01754,0.0088 -0.01754,0 -0.0307,-0.0066 -0.01096,-0.0066 -0.02412,-0.01316 -0.01096,-0.0088 -0.02412,-0.01316 -0.01316,-0.0066 -0.0307,-0.0044 v -0.0088 q 0,-0.02412 -0.01535,-0.0307 -0.01535,-0.0088 -0.02412,-0.02412 -0.03289,-0.0022 -0.06579,-0.0088 -0.0307,-0.0066 -0.0636,-0.0066 -0.04386,0 -0.06798,0.0307 -0.01096,-0.0044 -0.01974,-0.01096 -0.0066,-0.0066 -0.01974,-0.0044 h -0.0066 q -0.118421,0 -0.232455,0.02632 -0.114034,0.02412 -0.225876,0.0614 -0.111841,0.03509 -0.223683,0.07675 -0.111841,0.04167 -0.223682,0.07237 -0.02632,0.03509 -0.05482,0.05263 -0.02851,0.01535 -0.05702,0.02632 -0.02632,0.01096 -0.05263,0.02193 -0.02632,0.01096 -0.04605,0.03509 -0.01754,0.02412 -0.02851,0.06798 -0.0088,0.04167 -0.0044,0.116227 -0.01096,0.01316 -0.01316,0.02851 -0.0022,0.01535 -0.0044,0.0307 -0.0022,0.01316 -0.0066,0.02632 -0.0044,0.01316 -0.01535,0.02412 0.0044,0.02193 0.0066,0.04386 0.0022,0.02193 0.0022,0.04386 0,0.0921 -0.0307,0.179823 0.01096,0.01754 0.01096,0.03947 0,0.02412 -0.0066,0.04386 -0.0066,0.01974 -0.0066,0.04386 0,0.02412 0.0088,0.03947 0.01316,0 0.01535,0.0088 h 0.01316 q 0.03947,0 0.06798,-0.01974 0.02851,-0.01974 0.0614,-0.01974 0.0066,0 0.01535,0.0044 0.0088,0.0044 0.01535,0.0044 0.01535,0 0.01316,-0.01096 -0.0022,-0.01096 0.01097,-0.01535 l 0.07895,-0.01316 q 0.07456,-0.01316 0.14035,-0.0307 0.06798,-0.01974 0.133771,-0.05702 0.01535,0.0066 0.03509,0.0066 0.01754,0 0.03728,-0.0044 0.01974,-0.0066 0.03728,-0.0066 0.01535,0 0.02412,0.0044 0.01316,-0.0088 0.03289,-0.01316 0.01974,-0.0066 0.02193,-0.02632 h 0.0044 q 0.0088,0 0.01316,0.0044 0.0044,0.0044 0.01316,0.0044 h 0.0088 q 0.04605,-0.02193 0.08333,-0.03289 0.0614,-0.01535 0.131578,-0.02632 0.07018,-0.01316 0.125,-0.04386 0.0636,0 0.122806,-0.01974 0.0614,-0.02193 0.122806,-0.02193 0.02851,0 0.05263,0.0088 0.02193,-0.01535 0.05044,-0.02193 0.0307,-0.0066 0.05044,-0.02412 0.01316,0.0022 0.02632,0.0044 0.01535,0 0.0307,0 0.06579,0 0.124999,-0.01754 0.0614,-0.01974 0.125,-0.02851 0.01535,0.01754 0.01974,0.03728 0.0066,0.01754 0.0066,0.03728 z"
           style="opacity:0.39705821;fill:#8180ac;fill-opacity:1;stroke:none;stroke-width:0.106777;stroke-opacity:0.666667;filter:url(#filter17918)"
           transform="matrix(1.2586062,-0.84206962,0.84206962,1.2586062,-65.097858,29.566722)" />
        <path
           id="path7056"
           d="m 58.356206,56.585668 0.0074,0.01108 q -0.01561,0.01846 -8.53e-4,0.04053 -0.02113,0.03411 -0.04871,0.06455 -0.02942,0.0277 -0.05056,0.06179 -0.03221,0.01754 -0.06534,0.0397 -0.03221,0.01754 -0.06258,0.03786 -0.0828,0.0554 -0.1619,0.116335 -0.0791,0.06094 -0.165605,0.110798 -0.02387,0.04793 -0.06155,0.09313 -0.03675,0.04062 -0.07815,0.06832 -0.03313,0.02216 -0.06352,0.03047 -0.04409,0.07743 -0.109352,0.153075 -0.06251,0.07378 -0.127777,0.149422 -0.06712,0.07287 -0.123172,0.150332 -0.05514,0.07286 -0.07895,0.156711 0.02031,0.04234 0.0434,0.08284 0.02124,0.03774 0.04525,0.07362 0.02585,0.03864 0.05078,0.06991 0.0277,0.02942 0.06364,0.05331 0.0175,-0.0037 0.03592,-0.012 0.02117,-0.01016 0.03498,-0.0194 0.01379,-0.0092 0.02575,-0.02123 0.01009,-0.01477 0.0064,-0.03225 0.03769,-0.03323 0.08095,-0.05817 0.04141,-0.0277 0.0828,-0.0554 0.04141,-0.0277 0.07819,-0.05633 0.03956,-0.03047 0.07082,-0.06735 0.03675,-0.04062 0.07633,-0.07104 0.04231,-0.03232 0.08185,-0.06278 0.03954,-0.03046 0.08,-0.06555 0.03861,-0.03786 0.07077,-0.0913 0.04511,-0.01021 0.081,-0.03422 0.03864,-0.02585 0.07823,-0.04432 0.02855,8.69e-4 0.05067,0.01005 0.02488,0.0073 0.03965,0.02941 0.02585,0.03864 0.0241,0.09575 -0.0018,0.05711 0.0038,0.101314 l -0.03036,0.02031 q -0.06624,0.04432 -0.116798,0.106111 -0.04965,0.05719 -0.0965,0.124491 -0.04596,0.06271 -0.09649,0.124503 -0.04965,0.05719 -0.115883,0.101509 -0.01108,0.0074 -0.0046,0.02304 0.0074,0.01108 0.0055,0.02027 -0.01565,0.0065 -0.04325,0.02493 -0.06348,0.04247 -0.112206,0.09506 -0.04873,0.05257 -0.109457,0.0932 -0.01656,0.01108 -0.03313,0.02216 -0.01842,0.0083 -0.03683,0.01663 9.75e-4,0.0313 -0.01557,0.05436 -0.01837,0.02031 -0.02664,0.04978 0.0083,0.0304 0.02955,0.06814 0.02401,0.03588 0.04709,0.07637 0.02401,0.03588 0.04062,0.0727 0.01662,0.03683 0.01301,0.06722 0.01201,0.01195 0.02949,-0.0037 0.01561,-0.01846 0.0304,0.0036 0.01662,0.02484 0.02955,0.05615 0.01293,0.03131 0.0314,0.05891 0.03509,0.05245 0.08864,0.10852 0.05443,0.05148 0.11435,0.08731 0.06269,0.03398 0.130854,0.0403 0.06633,0.0036 0.132568,-0.04074 0.04416,-0.02955 0.07172,-0.07196 0.02756,-0.04241 0.02655,-0.09768 l 0.01194,-0.012 q 0.01108,-0.0074 0.02117,-0.01016 0.01293,-0.0046 0.02393,-0.012 0.01656,-0.01108 0.02847,-0.04702 0.01283,-0.04054 0.02472,-0.08845 0.01466,-0.04976 0.03115,-0.09676 0.01466,-0.04976 0.03763,-0.08111 -0.0065,-0.05157 -0.01582,-0.101286 -0.0065,-0.05156 0.01457,-0.09766 l -0.05356,-0.08005 q 0.0073,-0.04882 0.02103,-0.09398 0.0165,-0.04701 0.0072,-0.09672 0.0175,-0.0037 0.0304,-0.0083 0.01565,-0.0065 0.02945,-0.0157 0.01379,-0.0092 0.02575,-0.02124 0.01471,-0.01385 0.0248,-0.02862 0.04239,0.01559 0.07929,0.04683 0.0378,0.02665 0.07929,0.04683 0.0084,0.0663 0.02145,0.157464 0.01304,0.09116 0.02057,0.186018 0.0075,0.09485 0.0058,0.187885 -7.74e-4,0.08841 -0.02002,0.149241 -0.0027,0.01387 -0.02296,0.04333 -0.01559,0.04239 -0.02751,0.07833 -0.01008,0.0387 -0.01368,0.08107 -0.06342,0.0784 -0.110246,0.169651 -0.04407,0.08941 -0.08997,0.176072 -0.03868,0.01386 -0.07732,0.03971 -0.03313,0.02216 -0.06439,0.04709 -0.02941,0.02769 -0.06806,0.05355 -0.02031,-0.0064 -0.04604,0.0028 -0.02117,0.01016 -0.03226,-0.01837 -0.09755,0.05725 -0.186894,0.04912 -0.08751,-0.0054 -0.173233,-0.04392 -0.08296,-0.04039 -0.159509,-0.10105 -0.07655,-0.06066 -0.152165,-0.113956 l -0.0056,-0.0083 q -0.0092,-0.0138 -6e-6,-0.02397 0.0092,-0.01018 -5e-6,-0.02397 -0.0037,-0.0055 -0.0083,-0.0065 -0.02862,-0.0248 -0.0489,-0.04321 -0.02031,-0.01837 -0.04063,-0.04874 -0.02955,-0.04416 -0.05171,-0.08926 -0.02401,-0.04787 -0.05355,-0.09202 -0.02955,-0.04416 -0.06278,-0.06987 0.0018,-0.02121 -0.0047,-0.04881 -0.01108,-0.02855 -0.02493,-0.05523 -0.01385,-0.0267 -0.03047,-0.05153 -0.01385,-0.0267 -0.02124,-0.04972 -0.03139,-0.02295 -0.05441,-0.03952 -0.02493,-0.01929 -0.04708,-0.0524 l -0.01293,-0.01932 q -0.0038,-0.06539 -0.01771,-0.127991 -0.01392,-0.0626 -0.02693,-0.129819 l -0.0056,-0.0083 q -0.05356,-0.08005 -0.112642,-0.156379 -0.05909,-0.07634 -0.112643,-0.156381 l -0.03509,-0.05245 q -0.01847,-0.0276 -0.03232,-0.0543 0.01467,-0.02584 0.01282,-0.05252 -0.0019,-0.02673 0.01281,-0.05252 l 0.09109,-0.06094 -0.0019,-0.03868 q -9.22e-4,-0.01935 -0.0092,-0.03777 0.0248,-0.02862 0.04319,-0.06085 0.01928,-0.03687 0.03304,-0.07006 0.02387,-0.04793 0.04315,-0.0848 0.0202,-0.04148 0.04317,-0.07283 0.0239,-0.03596 0.05423,-0.06824 0.03033,-0.03231 0.07358,-0.06919 0.02208,-0.01477 0.02204,-0.02677 0.0027,-0.01387 0.0091,-0.03409 0.03682,-0.01662 0.07365,-0.03324 0.03498,-0.0194 0.06809,-0.04155 0.06624,-0.04432 0.107577,-0.107941 0.0828,-0.0554 0.160992,-0.11172 0.08095,-0.05817 0.163752,-0.113567 0.07177,-0.04801 0.147229,-0.09049 0.07547,-0.04248 0.153691,-0.07486 0.01929,-0.02493 0.04964,-0.04524 0.03313,-0.02216 0.0718,-0.03601 0.03959,-0.01847 0.069,-0.04616 0.02308,0.0285 0.04888,0.04322 0.02672,0.01009 0.04519,0.03769 z m -1.614648,1.08028 0.0074,0.01108 q -0.01562,0.01846 -8.53e-4,0.04053 -0.02113,0.0341 -0.04871,0.06455 -0.02942,0.0277 -0.05056,0.06179 -0.03221,0.01754 -0.06534,0.0397 -0.03221,0.01754 -0.06258,0.03786 -0.0828,0.0554 -0.1619,0.116336 -0.0791,0.06094 -0.165604,0.110798 -0.02387,0.04793 -0.06155,0.09313 -0.03675,0.04062 -0.07815,0.06832 -0.03313,0.02216 -0.06352,0.03047 -0.04409,0.07743 -0.109351,0.153073 -0.06251,0.07378 -0.127777,0.149423 -0.06712,0.07288 -0.123172,0.150332 -0.05514,0.07286 -0.07895,0.156711 0.02031,0.04234 0.0434,0.08284 0.02124,0.03774 0.04525,0.07362 0.02585,0.03864 0.05078,0.06991 0.0277,0.02942 0.06364,0.05331 0.01751,-0.0037 0.03592,-0.012 0.02117,-0.01016 0.03498,-0.01939 0.01381,-0.0092 0.02575,-0.02124 0.01009,-0.01477 0.0064,-0.03225 0.03769,-0.03323 0.08095,-0.05817 0.0414,-0.0277 0.0828,-0.0554 0.0414,-0.0277 0.0782,-0.05632 0.03954,-0.03047 0.07082,-0.06735 0.03675,-0.04062 0.07633,-0.07104 0.04231,-0.03232 0.08186,-0.06278 0.03954,-0.03046 0.08,-0.06555 0.03861,-0.03786 0.07077,-0.0913 0.04511,-0.01021 0.081,-0.03422 0.03864,-0.02585 0.07823,-0.04432 0.02855,8.69e-4 0.05067,0.01005 0.02488,0.0073 0.03965,0.02941 0.02585,0.03864 0.0241,0.09575 -0.0018,0.05711 0.0038,0.101314 l -0.03036,0.02031 q -0.06624,0.04432 -0.116799,0.106112 -0.04965,0.05719 -0.0965,0.124491 -0.04595,0.0627 -0.09649,0.124503 -0.04965,0.05719 -0.115881,0.101508 -0.01108,0.0074 -0.0046,0.02304 0.0074,0.01108 0.0055,0.02027 -0.01565,0.0065 -0.04325,0.02493 -0.06348,0.04247 -0.112206,0.09506 -0.04873,0.05257 -0.109457,0.0932 -0.01656,0.01108 -0.03313,0.02216 -0.01842,0.0083 -0.03683,0.01663 9.75e-4,0.03131 -0.01557,0.05436 -0.01837,0.02031 -0.02663,0.04977 0.0083,0.0304 0.02955,0.06814 0.02401,0.03588 0.04709,0.07637 0.02401,0.03588 0.04062,0.0727 0.01663,0.03683 0.01301,0.06722 0.01201,0.01195 0.02949,-0.0037 0.01561,-0.01846 0.0304,0.0036 0.01662,0.02485 0.02955,0.05615 0.01293,0.03131 0.03139,0.05891 0.03509,0.05245 0.08864,0.10852 0.05442,0.05149 0.11435,0.08731 0.06269,0.03398 0.130853,0.0403 0.06633,0.0036 0.132569,-0.04074 0.04416,-0.02955 0.07172,-0.07196 0.02756,-0.04241 0.02655,-0.09768 l 0.01194,-0.012 q 0.01108,-0.0074 0.02117,-0.01016 0.01293,-0.0046 0.02393,-0.012 0.01656,-0.01108 0.02847,-0.04702 0.01283,-0.04054 0.02472,-0.08845 0.01466,-0.04976 0.03115,-0.09676 0.01466,-0.04976 0.03763,-0.08111 -0.0065,-0.05156 -0.01582,-0.101286 -0.0065,-0.05156 0.01457,-0.09766 l -0.05356,-0.08005 q 0.0073,-0.04882 0.02103,-0.09398 0.01649,-0.047 0.0072,-0.09672 0.0175,-0.0037 0.0304,-0.0083 0.01565,-0.0065 0.02945,-0.0157 0.01379,-0.0092 0.02575,-0.02124 0.01471,-0.01385 0.0248,-0.02862 0.04239,0.01559 0.07928,0.04684 0.0378,0.02665 0.07929,0.04683 0.0084,0.0663 0.02145,0.157464 0.01304,0.09116 0.02057,0.186018 0.0075,0.09485 0.0058,0.187884 -7.74e-4,0.08841 -0.02002,0.149242 -0.0027,0.01386 -0.02296,0.04333 -0.01559,0.04239 -0.02751,0.07833 -0.01008,0.0387 -0.01369,0.08107 -0.06342,0.0784 -0.110246,0.169652 -0.04407,0.08941 -0.08997,0.176073 -0.03868,0.01386 -0.07732,0.03971 -0.03311,0.02215 -0.06439,0.04709 -0.02942,0.0277 -0.06806,0.05355 -0.02031,-0.0064 -0.04605,0.0028 -0.02117,0.01016 -0.03226,-0.01837 -0.09755,0.05725 -0.186894,0.04912 -0.08751,-0.0054 -0.173233,-0.04392 -0.08296,-0.04039 -0.159509,-0.10105 -0.07655,-0.06066 -0.152165,-0.113957 l -0.0056,-0.0083 q -0.0092,-0.01379 -6e-6,-0.02397 0.0092,-0.01018 -6e-6,-0.02397 -0.0037,-0.0055 -0.0083,-0.0065 -0.02862,-0.0248 -0.04888,-0.04322 -0.02031,-0.01837 -0.04063,-0.04874 -0.02955,-0.04416 -0.05171,-0.08926 -0.02401,-0.04787 -0.05355,-0.09202 -0.02955,-0.04416 -0.06278,-0.06987 0.0018,-0.0212 -0.0047,-0.04881 -0.01108,-0.02855 -0.02493,-0.05523 -0.01385,-0.0267 -0.03047,-0.05153 -0.01385,-0.0267 -0.02124,-0.04972 -0.03139,-0.02295 -0.05441,-0.03952 -0.02493,-0.01929 -0.04708,-0.0524 l -0.01293,-0.01932 q -0.0038,-0.06539 -0.01771,-0.12799 -0.01392,-0.0626 -0.02693,-0.129819 l -0.0056,-0.0083 q -0.05356,-0.08005 -0.112642,-0.15638 -0.05909,-0.07634 -0.112643,-0.15638 l -0.03509,-0.05245 q -0.01847,-0.0276 -0.03232,-0.0543 0.01467,-0.02585 0.01282,-0.05252 -0.0018,-0.02673 0.01282,-0.05252 l 0.09109,-0.06094 -0.0019,-0.03868 q -9.22e-4,-0.01935 -0.0092,-0.03777 0.0248,-0.02862 0.04319,-0.06085 0.01928,-0.03687 0.03304,-0.07006 0.02387,-0.04793 0.04315,-0.0848 0.0202,-0.04148 0.04317,-0.07283 0.02388,-0.03595 0.05423,-0.06824 0.03032,-0.03231 0.07357,-0.06919 0.02208,-0.01477 0.02204,-0.02677 0.0027,-0.01386 0.0091,-0.03409 0.03683,-0.01663 0.07365,-0.03324 0.03498,-0.01939 0.06809,-0.04155 0.06624,-0.04432 0.107577,-0.10794 0.0828,-0.0554 0.160992,-0.11172 0.08095,-0.05817 0.163754,-0.113568 0.07176,-0.04801 0.147229,-0.09049 0.07547,-0.04248 0.153689,-0.07486 0.01929,-0.02493 0.04964,-0.04524 0.03311,-0.02215 0.0718,-0.03601 0.03959,-0.01847 0.069,-0.04616 0.02308,0.0285 0.04888,0.04322 0.02672,0.01009 0.04519,0.03769 z m -0.110126,1.919633 q 0.02217,0.04511 0.01212,0.08379 -0.0073,0.03685 -0.02475,0.07648 -0.01565,0.0065 -0.02945,0.0157 -0.01293,0.0046 -0.0267,0.01385 -0.08741,0.05448 -0.148075,0.131027 -0.0579,0.0747 -0.130557,0.139294 -0.0239,0.024 -0.04874,0.04063 -0.02393,0.012 -0.04507,0.03416 -0.07909,0.07288 -0.172916,0.147647 -0.09381,0.07479 -0.183957,0.155033 -0.09196,0.07756 -0.175655,0.161469 -0.08276,0.07935 -0.143409,0.167862 -0.01201,1.9e-5 -0.02397,6e-6 -0.01386,-0.0027 -0.02488,0.0046 -0.0276,0.01847 -0.04689,0.0434 -0.01929,0.02493 -0.04597,0.03878 -0.01652,0.03503 -0.04411,0.06547 -0.02665,0.02585 -0.05607,0.05355 -0.0285,0.02308 -0.05332,0.05171 -0.0248,0.02862 -0.03765,0.06914 -0.02949,0.0037 -0.06261,0.02586 -0.03221,0.01754 -0.05617,0.0056 -0.04317,0.07283 -0.109393,0.129124 -0.06344,0.05447 -0.137058,0.09972 -0.04877,0.02862 -0.116878,0.05823 -0.06814,0.02955 -0.141754,0.05089 -0.0755,0.01855 -0.146398,0.02603 -0.07276,0.0047 -0.128062,-0.01821 -0.03779,-0.01468 -0.06823,-0.04226 -0.03047,-0.02757 -0.07187,-0.02383 -0.03417,-0.06904 -0.06378,-0.137125 -0.02955,-0.06814 -0.06102,-0.138969 0.02381,-0.08385 0.0384,-0.169537 0.01459,-0.08568 0.01998,-0.173189 0.03582,-0.05993 0.05597,-0.125357 0.02291,-0.06727 0.04307,-0.132706 0.02107,-0.07003 0.04123,-0.135463 0.02291,-0.06727 0.05689,-0.129965 -0.0046,-0.02488 0.0018,-0.04513 0.0073,-0.02488 0.0165,-0.04701 0.0073,-0.02488 0.01189,-0.04791 0.0027,-0.02579 -0.0065,-0.05156 0.05782,-0.122588 0.07049,-0.258928 0.01268,-0.136332 -0.03912,-0.261511 -0.07277,-0.0072 -0.140873,0.02234 -0.06719,0.02498 -0.134368,0.06193 -0.05706,0.03416 -0.11593,0.07756 -0.05611,0.04155 -0.12054,0.07664 -0.0478,0.05995 -0.110342,0.10979 -0.05978,0.04801 -0.119554,0.09602 -0.06163,0.04524 -0.115881,0.101508 -0.05332,0.05171 -0.08914,0.123571 -0.01107,0.0074 -0.02393,0.012 -0.01016,0.0028 -0.02117,0.01016 -0.09017,0.05632 -0.141598,0.146681 -0.05327,0.08759 -0.10379,0.173331 0.0019,0.01478 0.0055,0.02027 0.01108,0.01656 0.0277,0.02942 0.01754,0.0082 0.02862,0.0248 -9.16e-4,0.0046 9.36e-4,0.0074 0.0019,0.0028 9.36e-4,0.0074 0.0065,0.01565 0.0083,0.0304 0.0046,0.01293 0.0083,0.0304 0.02873,0.108628 0.08321,0.196049 0.04525,0.07362 0.09418,0.140764 0.04893,0.06714 0.09418,0.140765 0.05355,0.09202 0.0832,0.184071 0.05811,0.05701 0.119023,0.124142 0.05909,0.06436 0.123627,0.125058 0.06458,0.06068 0.132817,0.114912 0.06916,0.04962 0.148429,0.08449 9.36e-4,0.0074 0.0083,0.0065 0.0074,-9.36e-4 0.01293,-0.0046 l 0.02208,-0.01477 q 0.01379,-0.0092 0.01849,0.0037 0.0111,0.0046 0.01939,0.01101 0.0065,0.0037 0.01849,0.0037 0.0111,0.0046 0.01477,0.02208 0.03417,0.05705 0.04073,0.12059 0.0065,0.06354 0.03797,0.122434 -0.02756,0.03046 -0.05517,0.04894 -0.04877,0.02862 -0.101271,0.0278 -0.05065,0.0019 -0.103173,-0.01089 -0.05251,-0.0128 -0.102277,-0.02746 -0.05161,-0.01742 -0.101358,-0.0201 -0.07102,-0.06435 -0.15313,-0.145273 -0.07935,-0.08276 -0.165064,-0.121309 -0.0055,-0.03225 -0.02956,-0.06814 -0.03416,-0.05705 -0.0831,-0.100238 -0.04801,-0.04779 -0.0794,-0.1067 -0.02031,-0.03036 -0.03509,-0.06443 -0.012,-0.03591 -0.02955,-0.06814 -0.02862,-0.04877 -0.07202,-0.08367 -0.04062,-0.03675 -0.06925,-0.08553 -0.012,-0.02393 -0.01939,-0.04695 -0.0065,-0.02763 -0.0038,-0.05341 -0.03596,-0.0239 -0.05078,-0.05793 -0.02862,-0.04877 -0.04801,-0.09573 -0.0194,-0.04697 -0.04432,-0.09021 -0.01477,-0.02208 -0.03047,-0.03956 -0.01754,-0.02022 -0.036,-0.03584 l -0.0304,0.0083 q -0.01656,0.01108 -0.02756,0.03046 -0.0082,0.01754 -0.01192,0.03594 -0.0037,0.01849 -0.0064,0.03224 -0.0046,0.0111 -0.01286,0.01662 -0.0055,0.0037 -0.01379,0.0092 -0.0074,9.36e-4 -0.01293,0.0046 -0.0055,0.0037 -0.01467,0.02585 -0.0064,0.0203 -0.01926,0.04885 -0.01191,0.024 -0.02202,0.0507 -0.01191,0.024 -0.02113,0.03411 -0.03406,0.01477 -0.0626,0.01392 -0.02764,-0.0055 -0.05344,-0.0082 -0.02489,-0.0073 -0.04882,-0.0073 -0.02579,-0.0027 -0.04881,0.01662 -0.01939,-0.011 -0.03231,-0.03032 -0.0157,-0.01747 -0.02585,-0.03864 l -0.02955,-0.04416 q -0.0047,-0.04881 0.01367,-0.09305 0.01373,-0.04516 0.03854,-0.08571 l 0.0496,-0.08114 q 0.0248,-0.04057 0.03854,-0.08571 l 0.02484,-0.01662 q 0.05153,-0.03047 0.07263,-0.07656 0.02387,-0.04793 0.03853,-0.09769 0.0128,-0.05251 0.02561,-0.105046 0.01557,-0.05436 0.04589,-0.09862 0.03959,-0.0065 0.08011,-0.01763 0.03868,-0.01386 0.07642,-0.03509 0.03588,-0.02401 0.06711,-0.06093 0.03123,-0.03693 0.03303,-0.08203 0.0175,-0.0037 0.02763,-0.0065 0.01108,-0.0074 0.02484,-0.01662 0.04325,-0.02493 0.07539,-0.06648 0.03031,-0.04426 0.0542,-0.0922 0.05705,-0.03416 0.103944,-0.07756 0.04779,-0.04801 0.09287,-0.09409 0.04779,-0.04801 0.09472,-0.09134 0.04779,-0.04801 0.104848,-0.08217 0.09294,-0.05817 0.168324,-0.136594 0.07539,-0.07841 0.170176,-0.133825 0.06534,-0.0397 0.13161,-0.07202 0.06719,-0.03694 0.128816,-0.08218 0.04697,-0.0074 0.0838,-0.01212 0.03777,-0.0092 0.07823,-0.04432 0.138176,0.01543 0.276424,0.06678 l 0.03139,0.04692 q 0.03971,0.06534 0.06102,0.138969 0.02131,0.07365 0.03433,0.152835 0.01393,0.07458 0.02236,0.152863 0.0066,0.07551 0.01591,0.149183 -0.07045,0.282876 -0.142756,0.562991 -0.0723,0.280116 -0.163028,0.556579 0.01293,0.03131 0.01667,0.06076 0.0065,0.02763 0.02032,0.05433 0.0092,0.01381 0.01754,0.02022 0.02302,-0.0074 0.0479,-8.8e-5 0.02579,0.0027 0.03693,0.03123 l 0.02484,-0.01662 q 0.01379,-0.0092 0.0212,0.0018 l 0.04602,-0.02678 q 0.108585,-0.06463 0.20606,-0.145881 0.09747,-0.08125 0.193145,-0.16519 0.09842,-0.08582 0.195904,-0.167035 0.09565,-0.08396 0.198684,-0.156907 0.01929,-0.02493 0.04321,-0.0489 0.0239,-0.024 0.03491,-0.05531 l 0.0083,-0.0056 q 0.01932,-0.01293 0.03501,-0.0074 0.01849,0.0037 0.0396,-0.0065 0.01381,-0.0092 0.0239,-0.024 0.01286,-0.01662 0.02757,-0.03047 0.03123,-0.03693 0.07082,-0.06735 0.04231,-0.03232 0.08,-0.06555 0.150856,-0.120899 0.306328,-0.228926 0.153619,-0.110796 0.286946,-0.251924 0.02672,0.01009 0.05711,0.0017 0.02855,-0.01108 0.06168,-0.02128 0.03131,-0.01293 0.05891,-0.01944 0.0304,-0.0083 0.05528,0.01095 z m -3.818073,0.904307 q 0.02955,0.04416 0.04438,0.102167 0.0176,0.05615 0.02136,0.109568 -0.03218,0.02954 -0.04962,0.06916 -0.01468,0.03779 -0.02754,0.05439 -0.03218,0.02954 -0.08185,0.06278 -0.04877,0.02862 -0.08556,0.05724 -0.07082,0.0554 -0.137962,0.116281 -0.06436,0.05909 -0.125059,0.123626 -0.0055,0.0037 -0.0092,0.01018 -0.0055,0.0037 -0.0018,0.0092 0.0037,0.0055 0.01018,0.0092 0.0065,0.0037 0.01018,0.0092 0.0056,0.0083 -0.01101,0.01939 -0.03036,0.02031 -0.05432,0.0084 -0.07356,0.08117 -0.145253,0.165106 -0.07355,0.08116 -0.147097,0.162349 -0.03861,0.03786 -0.07723,0.07565 -0.03584,0.036 -0.07079,0.07932 -0.01837,0.02031 -0.03124,0.04887 l -0.0257,0.05715 q -0.01565,0.0065 -0.0267,0.01385 -0.01293,0.0046 -0.02393,0.012 -0.04692,0.03139 -0.08644,0.0858 -0.04136,0.05165 -0.05969,0.107861 l -0.01932,0.01293 q -0.0276,0.01847 -0.0442,0.01755 -0.0267,0.01385 -0.01928,0.03687 0.0055,0.02027 9.91e-4,0.04328 -0.08828,0.07109 -0.162763,0.156851 -0.07446,0.08579 -0.142472,0.175233 -0.06985,0.08669 -0.140628,0.17799 -0.06985,0.08669 -0.149858,0.164196 0.02586,0.06261 0.07387,0.134373 0.03693,0.0552 0.09325,0.121407 0.05909,0.06436 0.125416,0.09189 l 0.0037,0.0055 q 0.0092,0.01381 0.0018,0.02673 -0.0074,0.01295 0.0018,0.02673 0.04802,0.07177 0.104279,0.126015 0.05904,0.0524 0.116222,0.102036 0.05718,0.04963 0.111609,0.101132 0.05719,0.04963 0.09966,0.113118 0.01108,0.01656 0.01754,0.03221 0.01108,0.01656 0.01939,0.03497 0.02493,0.01929 0.0553,0.02294 0.0304,0.0036 0.05897,0.01648 0.012,0.01194 0.01939,0.02299 l 0.01847,0.0276 q 0.03139,0.04692 0.04432,0.09021 0.01293,0.04329 0.01672,0.08471 0.0056,0.04421 0.0066,0.08749 0.0028,0.04604 0.01213,0.09577 -0.0239,0.02401 -0.04046,0.03509 -0.04141,0.0277 -0.08377,0.02409 -0.03961,-0.0055 -0.0811,-0.02566 -0.03963,-0.01743 -0.08111,-0.03763 -0.03872,-0.02203 -0.07834,-0.0275 -0.0065,-0.01565 -0.01385,-0.0267 -0.0046,-0.01293 -0.01385,-0.0267 -0.03693,-0.0552 -0.09134,-0.09472 -0.05165,-0.04136 -0.10512,-0.07352 -0.06555,-0.09199 -0.143044,-0.172 -0.0775,-0.08 -0.166952,-0.148013 -0.01663,-0.03683 -0.03417,-0.06904 -0.01939,-0.03498 -0.0397,-0.06534 -0.05356,-0.08005 -0.115411,-0.154527 -0.06186,-0.07449 -0.109873,-0.158232 -0.01754,-0.0083 -0.03133,-0.011 -0.01572,-0.0055 -0.03042,-0.01562 l -0.01108,0.0074 q -0.0414,0.0277 -0.07449,0.06186 -0.03493,0.03139 -0.07357,0.05724 -0.01381,0.0092 -0.02484,0.01662 -0.01293,0.0046 -0.02855,0.01108 -0.05067,-0.01005 -0.09308,-0.0376 -0.04241,-0.02756 -0.07012,-0.06897 -0.04062,-0.06072 -0.04074,-0.132568 0.05792,-0.06273 0.109392,-0.129124 0.05237,-0.07101 0.09371,-0.146598 -0.01939,-0.04695 -0.04709,-0.08836 -0.02493,-0.04325 -0.02135,-0.09759 -0.02308,-0.01652 -0.05345,-0.02017 -0.02949,-0.0082 -0.04611,-0.03308 -0.0092,-0.0138 -0.01847,-0.03959 0.0073,-0.04883 -0.01306,-0.10313 -0.02032,-0.05433 -0.04716,-0.112293 -0.02678,-0.058 -0.05361,-0.115961 -0.02401,-0.05986 -0.0269,-0.11785 -0.02031,-0.01837 -0.0397,-0.04136 -0.02123,-0.02575 -0.03601,-0.04782 -0.02216,-0.03313 -0.04155,-0.06809 -0.01847,-0.03959 -0.02775,-0.07732 -0.05437,-0.01557 -0.105077,-0.04957 -0.05256,-0.03675 -0.08395,-0.08367 -0.06094,-0.09108 0.01075,-0.175018 -0.01018,-0.0092 -0.01846,-0.01561 -0.0056,-0.0083 -0.01108,-0.01656 -0.01662,-0.02484 -0.01758,-0.05616 -9.76e-4,-0.03131 -0.0075,-0.05893 -0.0378,-0.02665 -0.05442,-0.0515 -0.01477,-0.02208 -0.01754,-0.0442 -0.0046,-0.02488 -0.0139,-0.05062 -0.01016,-0.03316 -0.02216,-0.05709 -0.0092,-0.02578 -0.0093,-0.04972 -5e-6,-0.02397 0.01098,-0.04331 0.01376,-0.02123 0.0524,-0.04708 0.06073,-0.04063 0.14177,-0.03892 0.08197,-0.0029 0.143728,0.02371 0.0285,-0.02308 0.04504,-0.04617 0.01743,-0.0277 0.03124,-0.04887 0.01652,-0.02308 0.03494,-0.04334 0.01929,-0.02493 0.05425,-0.04432 -0.0046,-0.02488 0.01098,-0.04331 0.01652,-0.02308 0.03675,-0.04062 0.01837,-0.02031 0.03217,-0.04149 0.01376,-0.02123 0.0045,-0.04698 0.01663,8.97e-4 0.0304,-0.0083 0.0138,-0.0092 0.02575,-0.02124 0.01009,-0.01477 0.02665,-0.02585 0.01656,-0.01108 0.03501,-0.0074 0.04591,-0.08665 0.114871,-0.156767 0.06988,-0.07472 0.148075,-0.131027 0.120276,-0.232298 0.304188,-0.411286 0.186676,-0.180831 0.399201,-0.323021 0.03036,-0.02031 0.05796,-0.03878 0.0285,-0.02308 0.05981,-0.03601 0.03406,-0.01477 0.07917,-0.025 0.04787,-0.01206 0.09668,-0.01673 0.05157,-0.0065 0.101314,-0.0039 0.0479,-8.7e-5 0.08291,0.0045 0.05531,0.03491 0.0867,0.08183 0.01477,0.02208 0.02678,0.04602 0.01016,0.02117 0.02493,0.04325 0.02216,0.03313 0.06365,0.06529 -0.01016,0.0028 -0.02945,0.0157 -0.02485,0.01662 -0.03399,0.03877 -0.0092,0.02216 -0.01373,0.04516 -0.0046,0.02303 -0.01098,0.04331 -0.0037,0.01849 -0.01467,0.02584 -0.02208,0.01477 -0.0442,0.01754 -0.01935,9.22e-4 -0.04144,0.0037 -0.02121,-0.0018 -0.04144,0.0037 -0.02212,0.0028 -0.04235,0.02031 l -0.0074,-0.01108 q -0.02031,-0.03036 -0.04517,-0.02571 -0.02673,0.0019 -0.05067,-0.01005 -0.04325,0.02493 -0.09021,0.04432 -0.0442,0.01754 -0.0856,0.04525 -0.0552,0.03693 -0.05971,0.09588 -0.0175,0.0037 -0.03407,0.0028 -0.01386,-0.0027 -0.02855,0.01108 l -0.0083,0.0056 q -0.149045,0.09972 -0.270406,0.22887 -0.123213,0.126382 -0.232586,0.267481 -0.111215,0.138343 -0.216899,0.284955 -0.105675,0.146624 -0.220587,0.279441 -0.0036,0.06633 -0.02468,0.112403 -0.02296,0.04333 -0.0496,0.08114 -0.0239,0.03596 -0.04777,0.07192 -0.0239,0.03596 -0.02841,0.08294 -0.0018,0.04513 0.02136,0.109568 0.02401,0.05986 0.09233,0.149989 -0.0027,0.02579 0.0074,0.04697 0.01016,0.02117 0.02031,0.04234 0.0083,0.01842 0.01386,0.03868 0.0055,0.02027 9.91e-4,0.04328 0.024,0.0239 0.04524,0.04964 0.02124,0.02575 0.0397,0.05335 0.07755,0.115918 0.112784,0.252178 0.02856,0.01285 0.04703,0.04045 0.02031,0.03036 0.02863,0.06076 0.0083,0.0304 0.02863,0.06076 0.02031,0.03036 0.04431,0.04227 0.01656,-0.01108 0.02673,-0.0018 l 0.01656,-0.01108 q 0.04968,-0.03324 0.06894,-0.08209 0.01926,-0.04885 0.06066,-0.07655 0.0083,-0.0056 0.02302,-0.0074 0.01478,-0.0019 0.02302,-0.0074 0.01932,-0.01293 0.0073,-0.02488 -0.012,-0.01194 8.81e-4,-0.02856 l 0.08829,-0.08305 q 0.08276,-0.07935 0.150793,-0.156823 0.06894,-0.08209 0.120351,-0.184411 0.02488,-0.0046 0.04972,-0.02124 0.02208,-0.01477 0.04322,-0.03693 0.01929,-0.02493 0.04136,-0.0397 0.01932,-0.01293 0.03406,-0.01477 0.0092,-0.02216 0.03031,-0.04426 0.01929,-0.02493 0.0054,-0.05159 l 0.0055,-0.0037 q 0.01108,-0.0074 0.02027,-0.0055 0.0092,0.0018 0.02027,-0.0055 l 0.01108,-0.0074 q 0.03949,-0.06638 0.07718,-0.111565 0.06435,-0.07102 0.143441,-0.143925 0.07725,-0.07566 0.120393,-0.160461 0.08005,-0.05356 0.137942,-0.128256 0.05881,-0.0793 0.136098,-0.131012 0.03588,-0.02401 0.07365,-0.03324 0.01468,-0.03779 0.04502,-0.07008 0.03308,-0.03416 0.04317,-0.07283 0.01842,-0.0083 0.03683,-0.01663 0.01932,-0.01293 0.03864,-0.02585 0.0828,-0.0554 0.142555,-0.127334 0.06066,-0.07655 0.133318,-0.141142 0.03409,0.0091 0.05624,0.0303 0.02308,0.01652 0.0397,0.04136 z"
           style="opacity:1;fill:#201e80;fill-opacity:1;stroke:none;stroke-width:0.161695;stroke-opacity:0.666667" />
      </g>
    </g>
    <use
       x="0"
       y="0"
       xlink:href="#g59320"
       id="bingo-area_2"
       transform="translate(101.32257)" />
    <use
       x="0"
       y="0"
       xlink:href="#g59320"
       id="bingo-area_3"
       transform="translate(0,95.159268)" />
    <use
       x="0"
       y="0"
       xlink:href="#g59320"
       id="bingo-area_4"
       transform="translate(101.32257,95.159268)" />
    <use
       x="0"
       y="0"
       xlink:href="#g59320"
       id="bingo-area_5"
       transform="translate(0,190.31853)" />
    <use
       x="0"
       y="0"
       xlink:href="#g59320"
       id="bingo-area_6"
       transform="translate(101.32257,190.31853)" />
  </g>
  <script
     id="mesh_polyfill"
     type="text/javascript">
!function(){const t=&quot;http://www.w3.org/2000/svg&quot;,e=&quot;http://www.w3.org/1999/xlink&quot;,s=&quot;http://www.w3.org/1999/xhtml&quot;,r=2;if(document.createElementNS(t,&quot;meshgradient&quot;).x)return;const n=(t,e,s,r)=&gt;{let n=new x(.5*(e.x+s.x),.5*(e.y+s.y)),o=new x(.5*(t.x+e.x),.5*(t.y+e.y)),i=new x(.5*(s.x+r.x),.5*(s.y+r.y)),a=new x(.5*(n.x+o.x),.5*(n.y+o.y)),h=new x(.5*(n.x+i.x),.5*(n.y+i.y)),l=new x(.5*(a.x+h.x),.5*(a.y+h.y));return[[t,o,a,l],[l,h,i,r]]},o=t=&gt;{let e=t[0].distSquared(t[1]),s=t[2].distSquared(t[3]),r=.25*t[0].distSquared(t[2]),n=.25*t[1].distSquared(t[3]),o=e&gt;s?e:s,i=r&gt;n?r:n;return 18*(o&gt;i?o:i)},i=(t,e)=&gt;Math.sqrt(t.distSquared(e)),a=(t,e)=&gt;t.scale(2/3).add(e.scale(1/3)),h=t=&gt;{let e,s,r,n,o,i,a,h=new g;return t.match(/(\w+\(\s*[^)]+\))+/g).forEach(t=&gt;{let l=t.match(/[\w.-]+/g),d=l.shift();switch(d){case&quot;translate&quot;:2===l.length?e=new g(1,0,0,1,l[0],l[1]):(console.error(&quot;mesh.js: translate does not have 2 arguments!&quot;),e=new g(1,0,0,1,0,0)),h=h.append(e);break;case&quot;scale&quot;:1===l.length?s=new g(l[0],0,0,l[0],0,0):2===l.length?s=new g(l[0],0,0,l[1],0,0):(console.error(&quot;mesh.js: scale does not have 1 or 2 arguments!&quot;),s=new g(1,0,0,1,0,0)),h=h.append(s);break;case&quot;rotate&quot;:if(3===l.length&amp;&amp;(e=new g(1,0,0,1,l[1],l[2]),h=h.append(e)),l[0]){r=l[0]*Math.PI/180;let t=Math.cos(r),e=Math.sin(r);Math.abs(t)&lt;1e-16&amp;&amp;(t=0),Math.abs(e)&lt;1e-16&amp;&amp;(e=0),a=new g(t,e,-e,t,0,0),h=h.append(a)}else console.error(&quot;math.js: No argument to rotate transform!&quot;);3===l.length&amp;&amp;(e=new g(1,0,0,1,-l[1],-l[2]),h=h.append(e));break;case&quot;skewX&quot;:l[0]?(r=l[0]*Math.PI/180,n=Math.tan(r),o=new g(1,0,n,1,0,0),h=h.append(o)):console.error(&quot;math.js: No argument to skewX transform!&quot;);break;case&quot;skewY&quot;:l[0]?(r=l[0]*Math.PI/180,n=Math.tan(r),i=new g(1,n,0,1,0,0),h=h.append(i)):console.error(&quot;math.js: No argument to skewY transform!&quot;);break;case&quot;matrix&quot;:6===l.length?h=h.append(new g(...l)):console.error(&quot;math.js: Incorrect number of arguments for matrix!&quot;);break;default:console.error(&quot;mesh.js: Unhandled transform type: &quot;+d)}}),h},l=t=&gt;{let e=[],s=t.split(/[ ,]+/);for(let t=0,r=s.length-1;t&lt;r;t+=2)e.push(new x(parseFloat(s[t]),parseFloat(s[t+1])));return e},d=(t,e)=&gt;{for(let s in e)t.setAttribute(s,e[s])},c=(t,e,s,r,n)=&gt;{let o,i,a=[0,0,0,0];for(let h=0;h&lt;3;++h)e[h]&lt;t[h]&amp;&amp;e[h]&lt;s[h]||t[h]&lt;e[h]&amp;&amp;s[h]&lt;e[h]?a[h]=0:(a[h]=.5*((e[h]-t[h])/r+(s[h]-e[h])/n),o=Math.abs(3*(e[h]-t[h])/r),i=Math.abs(3*(s[h]-e[h])/n),a[h]&gt;o?a[h]=o:a[h]&gt;i&amp;&amp;(a[h]=i));return a},u=[[1,0,0,0,0,0,0,0,0,0,0,0,0,0,0,0],[0,0,0,0,1,0,0,0,0,0,0,0,0,0,0,0],[-3,3,0,0,-2,-1,0,0,0,0,0,0,0,0,0,0],[2,-2,0,0,1,1,0,0,0,0,0,0,0,0,0,0],[0,0,0,0,0,0,0,0,1,0,0,0,0,0,0,0],[0,0,0,0,0,0,0,0,0,0,0,0,1,0,0,0],[0,0,0,0,0,0,0,0,-3,3,0,0,-2,-1,0,0],[0,0,0,0,0,0,0,0,2,-2,0,0,1,1,0,0],[-3,0,3,0,0,0,0,0,-2,0,-1,0,0,0,0,0],[0,0,0,0,-3,0,3,0,0,0,0,0,-2,0,-1,0],[9,-9,-9,9,6,3,-6,-3,6,-6,3,-3,4,2,2,1],[-6,6,6,-6,-3,-3,3,3,-4,4,-2,2,-2,-2,-1,-1],[2,0,-2,0,0,0,0,0,1,0,1,0,0,0,0,0],[0,0,0,0,2,0,-2,0,0,0,0,0,1,0,1,0],[-6,6,6,-6,-4,-2,4,2,-3,3,-3,3,-2,-1,-2,-1],[4,-4,-4,4,2,2,-2,-2,2,-2,2,-2,1,1,1,1]],f=t=&gt;{let e=[];for(let s=0;s&lt;16;++s){e[s]=0;for(let r=0;r&lt;16;++r)e[s]+=u[s][r]*t[r]}return e},p=(t,e,s)=&gt;{const r=e*e,n=s*s,o=e*e*e,i=s*s*s;return t[0]+t[1]*e+t[2]*r+t[3]*o+t[4]*s+t[5]*s*e+t[6]*s*r+t[7]*s*o+t[8]*n+t[9]*n*e+t[10]*n*r+t[11]*n*o+t[12]*i+t[13]*i*e+t[14]*i*r+t[15]*i*o},y=t=&gt;{let e=[],s=[],r=[];for(let s=0;s&lt;4;++s)e[s]=[],e[s][0]=n(t[0][s],t[1][s],t[2][s],t[3][s]),e[s][1]=[],e[s][1].push(...n(...e[s][0][0])),e[s][1].push(...n(...e[s][0][1])),e[s][2]=[],e[s][2].push(...n(...e[s][1][0])),e[s][2].push(...n(...e[s][1][1])),e[s][2].push(...n(...e[s][1][2])),e[s][2].push(...n(...e[s][1][3]));for(let t=0;t&lt;8;++t){s[t]=[];for(let r=0;r&lt;4;++r)s[t][r]=[],s[t][r][0]=n(e[0][2][t][r],e[1][2][t][r],e[2][2][t][r],e[3][2][t][r]),s[t][r][1]=[],s[t][r][1].push(...n(...s[t][r][0][0])),s[t][r][1].push(...n(...s[t][r][0][1])),s[t][r][2]=[],s[t][r][2].push(...n(...s[t][r][1][0])),s[t][r][2].push(...n(...s[t][r][1][1])),s[t][r][2].push(...n(...s[t][r][1][2])),s[t][r][2].push(...n(...s[t][r][1][3]))}for(let t=0;t&lt;8;++t){r[t]=[];for(let e=0;e&lt;8;++e)r[t][e]=[],r[t][e][0]=s[t][0][2][e],r[t][e][1]=s[t][1][2][e],r[t][e][2]=s[t][2][2][e],r[t][e][3]=s[t][3][2][e]}return r};class x{constructor(t,e){this.x=t||0,this.y=e||0}toString(){return`(x=${this.x}, y=${this.y})`}clone(){return new x(this.x,this.y)}add(t){return new x(this.x+t.x,this.y+t.y)}scale(t){return void 0===t.x?new x(this.x*t,this.y*t):new x(this.x*t.x,this.y*t.y)}distSquared(t){let e=this.x-t.x,s=this.y-t.y;return e*e+s*s}transform(t){let e=this.x*t.a+this.y*t.c+t.e,s=this.x*t.b+this.y*t.d+t.f;return new x(e,s)}}class g{constructor(t,e,s,r,n,o){void 0===t?(this.a=1,this.b=0,this.c=0,this.d=1,this.e=0,this.f=0):(this.a=t,this.b=e,this.c=s,this.d=r,this.e=n,this.f=o)}toString(){return`affine: ${this.a} ${this.c} ${this.e} \n       ${this.b} ${this.d} ${this.f}`}append(t){t instanceof g||console.error(&quot;mesh.js: argument to Affine.append is not affine!&quot;);let e=this.a*t.a+this.c*t.b,s=this.b*t.a+this.d*t.b,r=this.a*t.c+this.c*t.d,n=this.b*t.c+this.d*t.d,o=this.a*t.e+this.c*t.f+this.e,i=this.b*t.e+this.d*t.f+this.f;return new g(e,s,r,n,o,i)}}class w{constructor(t,e){this.nodes=t,this.colors=e}paintCurve(t,e){if(o(this.nodes)&gt;r){const s=n(...this.nodes);let r=[[],[]],o=[[],[]];for(let t=0;t&lt;4;++t)r[0][t]=this.colors[0][t],r[1][t]=(this.colors[0][t]+this.colors[1][t])/2,o[0][t]=r[1][t],o[1][t]=this.colors[1][t];let i=new w(s[0],r),a=new w(s[1],o);i.paintCurve(t,e),a.paintCurve(t,e)}else{let s=Math.round(this.nodes[0].x);if(s&gt;=0&amp;&amp;s&lt;e){let r=4*(~~this.nodes[0].y*e+s);t[r]=Math.round(this.colors[0][0]),t[r+1]=Math.round(this.colors[0][1]),t[r+2]=Math.round(this.colors[0][2]),t[r+3]=Math.round(this.colors[0][3])}}}}class m{constructor(t,e){this.nodes=t,this.colors=e}split(){let t=[[],[],[],[]],e=[[],[],[],[]],s=[[[],[]],[[],[]]],r=[[[],[]],[[],[]]];for(let s=0;s&lt;4;++s){const r=n(this.nodes[0][s],this.nodes[1][s],this.nodes[2][s],this.nodes[3][s]);t[0][s]=r[0][0],t[1][s]=r[0][1],t[2][s]=r[0][2],t[3][s]=r[0][3],e[0][s]=r[1][0],e[1][s]=r[1][1],e[2][s]=r[1][2],e[3][s]=r[1][3]}for(let t=0;t&lt;4;++t)s[0][0][t]=this.colors[0][0][t],s[0][1][t]=this.colors[0][1][t],s[1][0][t]=(this.colors[0][0][t]+this.colors[1][0][t])/2,s[1][1][t]=(this.colors[0][1][t]+this.colors[1][1][t])/2,r[0][0][t]=s[1][0][t],r[0][1][t]=s[1][1][t],r[1][0][t]=this.colors[1][0][t],r[1][1][t]=this.colors[1][1][t];return[new m(t,s),new m(e,r)]}paint(t,e){let s,n=!1;for(let t=0;t&lt;4;++t)if((s=o([this.nodes[0][t],this.nodes[1][t],this.nodes[2][t],this.nodes[3][t]]))&gt;r){n=!0;break}if(n){let s=this.split();s[0].paint(t,e),s[1].paint(t,e)}else{new w([...this.nodes[0]],[...this.colors[0]]).paintCurve(t,e)}}}class b{constructor(t){this.readMesh(t),this.type=t.getAttribute(&quot;type&quot;)||&quot;bilinear&quot;}readMesh(t){let e=[[]],s=[[]],r=Number(t.getAttribute(&quot;x&quot;)),n=Number(t.getAttribute(&quot;y&quot;));e[0][0]=new x(r,n);let o=t.children;for(let t=0,r=o.length;t&lt;r;++t){e[3*t+1]=[],e[3*t+2]=[],e[3*t+3]=[],s[t+1]=[];let r=o[t].children;for(let n=0,o=r.length;n&lt;o;++n){let o=r[n].children;for(let r=0,i=o.length;r&lt;i;++r){let i=r;0!==t&amp;&amp;++i;let h,d=o[r].getAttribute(&quot;path&quot;),c=&quot;l&quot;;null!=d&amp;&amp;(c=(h=d.match(/\s*([lLcC])\s*(.*)/))[1]);let u=l(h[2]);switch(c){case&quot;l&quot;:0===i?(e[3*t][3*n+3]=u[0].add(e[3*t][3*n]),e[3*t][3*n+1]=a(e[3*t][3*n],e[3*t][3*n+3]),e[3*t][3*n+2]=a(e[3*t][3*n+3],e[3*t][3*n])):1===i?(e[3*t+3][3*n+3]=u[0].add(e[3*t][3*n+3]),e[3*t+1][3*n+3]=a(e[3*t][3*n+3],e[3*t+3][3*n+3]),e[3*t+2][3*n+3]=a(e[3*t+3][3*n+3],e[3*t][3*n+3])):2===i?(0===n&amp;&amp;(e[3*t+3][3*n+0]=u[0].add(e[3*t+3][3*n+3])),e[3*t+3][3*n+1]=a(e[3*t+3][3*n],e[3*t+3][3*n+3]),e[3*t+3][3*n+2]=a(e[3*t+3][3*n+3],e[3*t+3][3*n])):(e[3*t+1][3*n]=a(e[3*t][3*n],e[3*t+3][3*n]),e[3*t+2][3*n]=a(e[3*t+3][3*n],e[3*t][3*n]));break;case&quot;L&quot;:0===i?(e[3*t][3*n+3]=u[0],e[3*t][3*n+1]=a(e[3*t][3*n],e[3*t][3*n+3]),e[3*t][3*n+2]=a(e[3*t][3*n+3],e[3*t][3*n])):1===i?(e[3*t+3][3*n+3]=u[0],e[3*t+1][3*n+3]=a(e[3*t][3*n+3],e[3*t+3][3*n+3]),e[3*t+2][3*n+3]=a(e[3*t+3][3*n+3],e[3*t][3*n+3])):2===i?(0===n&amp;&amp;(e[3*t+3][3*n+0]=u[0]),e[3*t+3][3*n+1]=a(e[3*t+3][3*n],e[3*t+3][3*n+3]),e[3*t+3][3*n+2]=a(e[3*t+3][3*n+3],e[3*t+3][3*n])):(e[3*t+1][3*n]=a(e[3*t][3*n],e[3*t+3][3*n]),e[3*t+2][3*n]=a(e[3*t+3][3*n],e[3*t][3*n]));break;case&quot;c&quot;:0===i?(e[3*t][3*n+1]=u[0].add(e[3*t][3*n]),e[3*t][3*n+2]=u[1].add(e[3*t][3*n]),e[3*t][3*n+3]=u[2].add(e[3*t][3*n])):1===i?(e[3*t+1][3*n+3]=u[0].add(e[3*t][3*n+3]),e[3*t+2][3*n+3]=u[1].add(e[3*t][3*n+3]),e[3*t+3][3*n+3]=u[2].add(e[3*t][3*n+3])):2===i?(e[3*t+3][3*n+2]=u[0].add(e[3*t+3][3*n+3]),e[3*t+3][3*n+1]=u[1].add(e[3*t+3][3*n+3]),0===n&amp;&amp;(e[3*t+3][3*n+0]=u[2].add(e[3*t+3][3*n+3]))):(e[3*t+2][3*n]=u[0].add(e[3*t+3][3*n]),e[3*t+1][3*n]=u[1].add(e[3*t+3][3*n]));break;case&quot;C&quot;:0===i?(e[3*t][3*n+1]=u[0],e[3*t][3*n+2]=u[1],e[3*t][3*n+3]=u[2]):1===i?(e[3*t+1][3*n+3]=u[0],e[3*t+2][3*n+3]=u[1],e[3*t+3][3*n+3]=u[2]):2===i?(e[3*t+3][3*n+2]=u[0],e[3*t+3][3*n+1]=u[1],0===n&amp;&amp;(e[3*t+3][3*n+0]=u[2])):(e[3*t+2][3*n]=u[0],e[3*t+1][3*n]=u[1]);break;default:console.error(&quot;mesh.js: &quot;+c+&quot; invalid path type.&quot;)}if(0===t&amp;&amp;0===n||r&gt;0){let e=window.getComputedStyle(o[r]).stopColor.match(/^rgb\s*\(\s*(\d+)\s*,\s*(\d+)\s*,\s*(\d+)\s*\)$/i),a=window.getComputedStyle(o[r]).stopOpacity,h=255;a&amp;&amp;(h=Math.floor(255*a)),e&amp;&amp;(0===i?(s[t][n]=[],s[t][n][0]=Math.floor(e[1]),s[t][n][1]=Math.floor(e[2]),s[t][n][2]=Math.floor(e[3]),s[t][n][3]=h):1===i?(s[t][n+1]=[],s[t][n+1][0]=Math.floor(e[1]),s[t][n+1][1]=Math.floor(e[2]),s[t][n+1][2]=Math.floor(e[3]),s[t][n+1][3]=h):2===i?(s[t+1][n+1]=[],s[t+1][n+1][0]=Math.floor(e[1]),s[t+1][n+1][1]=Math.floor(e[2]),s[t+1][n+1][2]=Math.floor(e[3]),s[t+1][n+1][3]=h):3===i&amp;&amp;(s[t+1][n]=[],s[t+1][n][0]=Math.floor(e[1]),s[t+1][n][1]=Math.floor(e[2]),s[t+1][n][2]=Math.floor(e[3]),s[t+1][n][3]=h))}}e[3*t+1][3*n+1]=new x,e[3*t+1][3*n+2]=new x,e[3*t+2][3*n+1]=new x,e[3*t+2][3*n+2]=new x,e[3*t+1][3*n+1].x=(-4*e[3*t][3*n].x+6*(e[3*t][3*n+1].x+e[3*t+1][3*n].x)+-2*(e[3*t][3*n+3].x+e[3*t+3][3*n].x)+3*(e[3*t+3][3*n+1].x+e[3*t+1][3*n+3].x)+-1*e[3*t+3][3*n+3].x)/9,e[3*t+1][3*n+2].x=(-4*e[3*t][3*n+3].x+6*(e[3*t][3*n+2].x+e[3*t+1][3*n+3].x)+-2*(e[3*t][3*n].x+e[3*t+3][3*n+3].x)+3*(e[3*t+3][3*n+2].x+e[3*t+1][3*n].x)+-1*e[3*t+3][3*n].x)/9,e[3*t+2][3*n+1].x=(-4*e[3*t+3][3*n].x+6*(e[3*t+3][3*n+1].x+e[3*t+2][3*n].x)+-2*(e[3*t+3][3*n+3].x+e[3*t][3*n].x)+3*(e[3*t][3*n+1].x+e[3*t+2][3*n+3].x)+-1*e[3*t][3*n+3].x)/9,e[3*t+2][3*n+2].x=(-4*e[3*t+3][3*n+3].x+6*(e[3*t+3][3*n+2].x+e[3*t+2][3*n+3].x)+-2*(e[3*t+3][3*n].x+e[3*t][3*n+3].x)+3*(e[3*t][3*n+2].x+e[3*t+2][3*n].x)+-1*e[3*t][3*n].x)/9,e[3*t+1][3*n+1].y=(-4*e[3*t][3*n].y+6*(e[3*t][3*n+1].y+e[3*t+1][3*n].y)+-2*(e[3*t][3*n+3].y+e[3*t+3][3*n].y)+3*(e[3*t+3][3*n+1].y+e[3*t+1][3*n+3].y)+-1*e[3*t+3][3*n+3].y)/9,e[3*t+1][3*n+2].y=(-4*e[3*t][3*n+3].y+6*(e[3*t][3*n+2].y+e[3*t+1][3*n+3].y)+-2*(e[3*t][3*n].y+e[3*t+3][3*n+3].y)+3*(e[3*t+3][3*n+2].y+e[3*t+1][3*n].y)+-1*e[3*t+3][3*n].y)/9,e[3*t+2][3*n+1].y=(-4*e[3*t+3][3*n].y+6*(e[3*t+3][3*n+1].y+e[3*t+2][3*n].y)+-2*(e[3*t+3][3*n+3].y+e[3*t][3*n].y)+3*(e[3*t][3*n+1].y+e[3*t+2][3*n+3].y)+-1*e[3*t][3*n+3].y)/9,e[3*t+2][3*n+2].y=(-4*e[3*t+3][3*n+3].y+6*(e[3*t+3][3*n+2].y+e[3*t+2][3*n+3].y)+-2*(e[3*t+3][3*n].y+e[3*t][3*n+3].y)+3*(e[3*t][3*n+2].y+e[3*t+2][3*n].y)+-1*e[3*t][3*n].y)/9}}this.nodes=e,this.colors=s}paintMesh(t,e){let s=(this.nodes.length-1)/3,r=(this.nodes[0].length-1)/3;if(&quot;bilinear&quot;===this.type||s&lt;2||r&lt;2){let n;for(let o=0;o&lt;s;++o)for(let s=0;s&lt;r;++s){let r=[];for(let t=3*o,e=3*o+4;t&lt;e;++t)r.push(this.nodes[t].slice(3*s,3*s+4));let i=[];i.push(this.colors[o].slice(s,s+2)),i.push(this.colors[o+1].slice(s,s+2)),(n=new m(r,i)).paint(t,e)}}else{let n,o,a,h,l,d,u;const x=s,g=r;s++,r++;let w=new Array(s);for(let t=0;t&lt;s;++t){w[t]=new Array(r);for(let e=0;e&lt;r;++e)w[t][e]=[],w[t][e][0]=this.nodes[3*t][3*e],w[t][e][1]=this.colors[t][e]}for(let t=0;t&lt;s;++t)for(let e=0;e&lt;r;++e)0!==t&amp;&amp;t!==x&amp;&amp;(n=i(w[t-1][e][0],w[t][e][0]),o=i(w[t+1][e][0],w[t][e][0]),w[t][e][2]=c(w[t-1][e][1],w[t][e][1],w[t+1][e][1],n,o)),0!==e&amp;&amp;e!==g&amp;&amp;(n=i(w[t][e-1][0],w[t][e][0]),o=i(w[t][e+1][0],w[t][e][0]),w[t][e][3]=c(w[t][e-1][1],w[t][e][1],w[t][e+1][1],n,o));for(let t=0;t&lt;r;++t){w[0][t][2]=[],w[x][t][2]=[];for(let e=0;e&lt;4;++e)n=i(w[1][t][0],w[0][t][0]),o=i(w[x][t][0],w[x-1][t][0]),w[0][t][2][e]=n&gt;0?2*(w[1][t][1][e]-w[0][t][1][e])/n-w[1][t][2][e]:0,w[x][t][2][e]=o&gt;0?2*(w[x][t][1][e]-w[x-1][t][1][e])/o-w[x-1][t][2][e]:0}for(let t=0;t&lt;s;++t){w[t][0][3]=[],w[t][g][3]=[];for(let e=0;e&lt;4;++e)n=i(w[t][1][0],w[t][0][0]),o=i(w[t][g][0],w[t][g-1][0]),w[t][0][3][e]=n&gt;0?2*(w[t][1][1][e]-w[t][0][1][e])/n-w[t][1][3][e]:0,w[t][g][3][e]=o&gt;0?2*(w[t][g][1][e]-w[t][g-1][1][e])/o-w[t][g-1][3][e]:0}for(let s=0;s&lt;x;++s)for(let r=0;r&lt;g;++r){let n=i(w[s][r][0],w[s+1][r][0]),o=i(w[s][r+1][0],w[s+1][r+1][0]),c=i(w[s][r][0],w[s][r+1][0]),x=i(w[s+1][r][0],w[s+1][r+1][0]),g=[[],[],[],[]];for(let t=0;t&lt;4;++t){(d=[])[0]=w[s][r][1][t],d[1]=w[s+1][r][1][t],d[2]=w[s][r+1][1][t],d[3]=w[s+1][r+1][1][t],d[4]=w[s][r][2][t]*n,d[5]=w[s+1][r][2][t]*n,d[6]=w[s][r+1][2][t]*o,d[7]=w[s+1][r+1][2][t]*o,d[8]=w[s][r][3][t]*c,d[9]=w[s+1][r][3][t]*x,d[10]=w[s][r+1][3][t]*c,d[11]=w[s+1][r+1][3][t]*x,d[12]=0,d[13]=0,d[14]=0,d[15]=0,u=f(d);for(let e=0;e&lt;9;++e){g[t][e]=[];for(let s=0;s&lt;9;++s)g[t][e][s]=p(u,e/8,s/8),g[t][e][s]&gt;255?g[t][e][s]=255:g[t][e][s]&lt;0&amp;&amp;(g[t][e][s]=0)}}h=[];for(let t=3*s,e=3*s+4;t&lt;e;++t)h.push(this.nodes[t].slice(3*r,3*r+4));l=y(h);for(let s=0;s&lt;8;++s)for(let r=0;r&lt;8;++r)(a=new m(l[s][r],[[[g[0][s][r],g[1][s][r],g[2][s][r],g[3][s][r]],[g[0][s][r+1],g[1][s][r+1],g[2][s][r+1],g[3][s][r+1]]],[[g[0][s+1][r],g[1][s+1][r],g[2][s+1][r],g[3][s+1][r]],[g[0][s+1][r+1],g[1][s+1][r+1],g[2][s+1][r+1],g[3][s+1][r+1]]]])).paint(t,e)}}}transform(t){if(t instanceof x)for(let e=0,s=this.nodes.length;e&lt;s;++e)for(let s=0,r=this.nodes[0].length;s&lt;r;++s)this.nodes[e][s]=this.nodes[e][s].add(t);else if(t instanceof g)for(let e=0,s=this.nodes.length;e&lt;s;++e)for(let s=0,r=this.nodes[0].length;s&lt;r;++s)this.nodes[e][s]=this.nodes[e][s].transform(t)}scale(t){for(let e=0,s=this.nodes.length;e&lt;s;++e)for(let s=0,r=this.nodes[0].length;s&lt;r;++s)this.nodes[e][s]=this.nodes[e][s].scale(t)}}document.querySelectorAll(&quot;rect,circle,ellipse,path,text&quot;).forEach((r,n)=&gt;{let o=r.getAttribute(&quot;id&quot;);o||(o=&quot;patchjs_shape&quot;+n,r.setAttribute(&quot;id&quot;,o));const i=r.style.fill.match(/^url\(\s*&quot;?\s*#([^\s&quot;]+)&quot;?\s*\)/),a=r.style.stroke.match(/^url\(\s*&quot;?\s*#([^\s&quot;]+)&quot;?\s*\)/);if(i&amp;&amp;i[1]){const a=document.getElementById(i[1]);if(a&amp;&amp;&quot;meshgradient&quot;===a.nodeName){const i=r.getBBox();let l=document.createElementNS(s,&quot;canvas&quot;);d(l,{width:i.width,height:i.height});const c=l.getContext(&quot;2d&quot;);let u=c.createImageData(i.width,i.height);const f=new b(a);&quot;objectBoundingBox&quot;===a.getAttribute(&quot;gradientUnits&quot;)&amp;&amp;f.scale(new x(i.width,i.height));const p=a.getAttribute(&quot;gradientTransform&quot;);null!=p&amp;&amp;f.transform(h(p)),&quot;userSpaceOnUse&quot;===a.getAttribute(&quot;gradientUnits&quot;)&amp;&amp;f.transform(new x(-i.x,-i.y)),f.paintMesh(u.data,l.width),c.putImageData(u,0,0);const y=document.createElementNS(t,&quot;image&quot;);d(y,{width:i.width,height:i.height,x:i.x,y:i.y});let g=l.toDataURL();y.setAttributeNS(e,&quot;xlink:href&quot;,g),r.parentNode.insertBefore(y,r),r.style.fill=&quot;none&quot;;const w=document.createElementNS(t,&quot;use&quot;);w.setAttributeNS(e,&quot;xlink:href&quot;,&quot;#&quot;+o);const m=&quot;patchjs_clip&quot;+n,M=document.createElementNS(t,&quot;clipPath&quot;);M.setAttribute(&quot;id&quot;,m),M.appendChild(w),r.parentElement.insertBefore(M,r),y.setAttribute(&quot;clip-path&quot;,&quot;url(#&quot;+m+&quot;)&quot;),u=null,l=null,g=null}}if(a&amp;&amp;a[1]){const o=document.getElementById(a[1]);if(o&amp;&amp;&quot;meshgradient&quot;===o.nodeName){const i=parseFloat(r.style.strokeWidth.slice(0,-2))*(parseFloat(r.style.strokeMiterlimit)||parseFloat(r.getAttribute(&quot;stroke-miterlimit&quot;))||1),a=r.getBBox(),l=Math.trunc(a.width+i),c=Math.trunc(a.height+i),u=Math.trunc(a.x-i/2),f=Math.trunc(a.y-i/2);let p=document.createElementNS(s,&quot;canvas&quot;);d(p,{width:l,height:c});const y=p.getContext(&quot;2d&quot;);let g=y.createImageData(l,c);const w=new b(o);&quot;objectBoundingBox&quot;===o.getAttribute(&quot;gradientUnits&quot;)&amp;&amp;w.scale(new x(l,c));const m=o.getAttribute(&quot;gradientTransform&quot;);null!=m&amp;&amp;w.transform(h(m)),&quot;userSpaceOnUse&quot;===o.getAttribute(&quot;gradientUnits&quot;)&amp;&amp;w.transform(new x(-u,-f)),w.paintMesh(g.data,p.width),y.putImageData(g,0,0);const M=document.createElementNS(t,&quot;image&quot;);d(M,{width:l,height:c,x:0,y:0});let S=p.toDataURL();M.setAttributeNS(e,&quot;xlink:href&quot;,S);const k=&quot;pattern_clip&quot;+n,A=document.createElementNS(t,&quot;pattern&quot;);d(A,{id:k,patternUnits:&quot;userSpaceOnUse&quot;,width:l,height:c,x:u,y:f}),A.appendChild(M),o.parentNode.appendChild(A),r.style.stroke=&quot;url(#&quot;+k+&quot;)&quot;,g=null,p=null,S=null}}})}();
</script>
</svg>
